<svg xmlns="http://www.w3.org/2000/svg" width="24" height="27.454" viewBox="0 0 24 27.454">
  <g id="icon_attach" transform="translate(-31.961 0)">
    <path id="Path_3634" data-name="Path 3634" d="M42.452,27.454a10.6,10.6,0,0,1-7.428-3.022,10.96,10.96,0,0,1,.182-15.384L41.88,2.375A7.838,7.838,0,0,1,52.139,1.52a7.67,7.67,0,0,1,.76,11.5L45.914,20a4.99,4.99,0,0,1-2.957,1.5,4.677,4.677,0,0,1-4.047-1.59,4.983,4.983,0,0,1,.385-6.57l5.324-5.32a1.729,1.729,0,0,1,2.445,0h0a1.729,1.729,0,0,1,0,2.445l-5.488,5.489a1.237,1.237,0,0,0,1.75,1.749l7.047-7.046a4.28,4.28,0,0,0,.642-5.343,4.211,4.211,0,0,0-6.5-.692l-6.955,6.961a7.334,7.334,0,0,0-.8,9.606,7.178,7.178,0,0,0,10.763.71l5.489-5.488a1.729,1.729,0,0,1,2.445,0h0a1.729,1.729,0,0,1,0,2.445l-5.489,5.488A10.59,10.59,0,0,1,42.452,27.454Z" transform="translate(0 0)" fill="#fff"/>
  </g>
</svg>
