<svg xmlns="http://www.w3.org/2000/svg" width="23" height="19.134" viewBox="0 0 23 19.134">
  <g id="icon-arrow" transform="translate(23 60.48) rotate(180)">
    <g id="Group_70" data-name="Group 70" transform="translate(0 41.346)">
      <path id="Path_149" data-name="Path 149" d="M22.632,50.02l-8.306-8.306a1.262,1.262,0,0,0-1.78,0l-.754.754a1.249,1.249,0,0,0-.367.89,1.274,1.274,0,0,0,.367.9l4.846,4.856H1.243A1.228,1.228,0,0,0,0,50.352v1.066a1.276,1.276,0,0,0,1.243,1.292h15.45l-4.9,4.883a1.247,1.247,0,0,0,0,1.768l.754.752a1.263,1.263,0,0,0,1.78,0l8.306-8.306a1.269,1.269,0,0,0,0-1.787Z" transform="translate(0 -41.346)" fill="#262678"/>
    </g>
  </g>
</svg>
