<svg xmlns="http://www.w3.org/2000/svg" width="17.027" height="18.917" viewBox="0 0 17.027 18.917">
  <g id="icon_calendar" style="isolation: isolate">
    <path id="Color" d="M14.19,18.917H2.838A2.841,2.841,0,0,1,0,16.08V4.73A2.841,2.841,0,0,1,2.838,1.892h.946V.946a.946.946,0,1,1,1.892,0v.946h5.675V.946a.946.946,0,1,1,1.893,0v.946h.946A2.841,2.841,0,0,1,17.027,4.73V16.08A2.841,2.841,0,0,1,14.19,18.917ZM1.892,10.4V16.08a.947.947,0,0,0,.946.946H14.19a.946.946,0,0,0,.945-.946V10.4Zm.946-6.621a.947.947,0,0,0-.946.946V8.513H15.135V4.73a.946.946,0,0,0-.945-.946h-.946V4.73a.946.946,0,1,1-1.893,0V3.784H5.676V4.73a.946.946,0,1,1-1.892,0V3.784Zm9.459,10.4H8.513a.946.946,0,0,1,0-1.892H12.3a.946.946,0,1,1,0,1.892Zm-7.568,0a.946.946,0,1,1,.946-.946A.947.947,0,0,1,4.729,14.188Z" transform="translate(0 0)" fill="#161d6f"/>
  </g>
</svg>
