<svg xmlns="http://www.w3.org/2000/svg" width="12.502" height="12.501" viewBox="0 0 12.502 12.501">
  <path id="icon_check" d="M5.468,8.854a1.042,1.042,0,0,1-.738-.305L2.76,6.622a.521.521,0,0,1,.729-.745L5.465,7.808,9.01,4.318a.521.521,0,0,1,.729.742L6.2,8.553A1.033,1.033,0,0,1,5.468,8.854ZM12.5,9.9V6.427A6.359,6.359,0,0,0,6.685.014,6.25,6.25,0,0,0,.014,6.695C.245,10,3.167,12.5,6.814,12.5H9.9A2.607,2.607,0,0,0,12.5,9.9ZM6.614,1.054a5.313,5.313,0,0,1,4.844,5.373V9.9A1.563,1.563,0,0,1,9.9,11.458H6.814c-3.143,0-5.564-2.031-5.76-4.836a5.209,5.209,0,0,1,5.2-5.582C6.376,1.041,6.5,1.046,6.614,1.054Z" transform="translate(0.002 0.001)" fill="#dc9928"/>
</svg>
