<svg id="icon_clock" xmlns="http://www.w3.org/2000/svg" width="18.701" height="18.701" viewBox="0 0 18.701 18.701">
  <path id="Path_4238" data-name="Path 4238" d="M9.35,0A9.35,9.35,0,1,0,18.7,9.35,9.35,9.35,0,0,0,9.35,0Zm0,17.142A7.792,7.792,0,1,1,17.142,9.35,7.792,7.792,0,0,1,9.35,17.142Z" fill="#262678"/>
  <path id="Path_4239" data-name="Path 4239" d="M10.931,6a.779.779,0,0,0-.779.779v3.37L7.525,11.795a.781.781,0,1,0,.828,1.325l2.992-1.87a.779.779,0,0,0,.365-.669v-3.8A.779.779,0,0,0,10.931,6Z" transform="translate(-1.58 -1.325)" fill="#262678"/>
</svg>
