<svg xmlns="http://www.w3.org/2000/svg" width="27" height="27" viewBox="0 0 27 27">
  <g id="icon_down" transform="translate(-311 -808)">
    <circle id="Ellipse_13" data-name="Ellipse 13" cx="13.5" cy="13.5" r="13.5" transform="translate(311 808)" fill="#dc9928"/>
    <path id="arrow-small-right" d="M18,12h0a2,2,0,0,0-.59-1.4L13.12,6.3a1,1,0,1,0-1.41,1.42L15,11H5a1,1,0,0,0,0,2H15l-3.29,3.29a1,1,0,1,0,1.41,1.42l4.29-4.3A2,2,0,0,0,18,12Z" transform="translate(336.505 811) rotate(90)" fill="#fff"/>
  </g>
</svg>
