<svg xmlns="http://www.w3.org/2000/svg" width="70.679" height="108.36" viewBox="0 0 70.679 108.36">
  <g id="Group_16" data-name="Group 16" transform="translate(-311.975 -101.183)">
    <path id="Path_13" data-name="Path 13" d="M322.74,208.633c-6.78.092-10.7-3.719-10.715-10.395q-.1-35.8-.048-71.609c0-7.248.138-14.5.023-21.744-.042-2.708.741-3.72,3.609-3.7,18.5.112,36.992.021,55.488.079,6.079.02,11.244,4.693,11.444,10.6.241,7.115.01,14.245.1,21.366.036,2.882-1.667,3.192-3.9,3.185-9-.029-18,.1-26.993-.06-3.372-.062-4.588.971-4.447,4.48.375,9.346-1.315,8.134,8.127,8.24,4,.045,8,.092,12-.019,2.318-.064,3.4.6,3.35,3.162-.131,7.371.038,14.748-.077,22.119-.081,5.174-6.1,10.991-11.244,11.08-2.748.048-5.509.163-8.245-.028-2.875-.2-4,.74-3.895,3.772.208,5.742,0,11.5.083,17.244.03,2.162-.6,3.2-2.978,3.141-10.487-.252-8.472,1.436-8.623-8.305-.123-8,.052-16-.062-23.995-.038-2.6.876-3.549,3.475-3.489,5.5.126,11-.042,16.495.054,2.588.045,3.523-.984,3.459-3.56-.263-10.542,1.521-9.015-8.7-9.16-3.874-.055-7.752-.108-11.621.021-2.622.087-3.829-.657-3.783-3.578q.222-14.43,0-28.867c-.037-2.721,1.043-3.4,3.545-3.374,9.622.1,19.247-.055,28.868.092,2.91.045,3.964-.82,3.869-3.815-.343-10.79,1.674-9.182-9.335-9.281q-15.746-.141-31.493.01c-7.511.083-7.346-1.6-7.435,7.562-.218,22.369-.248,44.739-.337,67.109C322.716,194.191,322.74,201.417,322.74,208.633Z" fill="#dc9928"/>
  </g>
</svg>
