<svg id="icon_location" xmlns="http://www.w3.org/2000/svg" width="11.11" height="13.26" viewBox="0 0 11.11 13.26">
  <path id="Path_3638" data-name="Path 3638" d="M10.21,6a2.21,2.21,0,1,0,2.21,2.21A2.21,2.21,0,0,0,10.21,6Zm0,3.315a1.1,1.1,0,1,1,1.1-1.1A1.1,1.1,0,0,1,10.21,9.315Z" transform="translate(-4.655 -2.684)" fill="#7b7b7b"/>
  <path id="Path_3639" data-name="Path 3639" d="M7.5,13.258a2.912,2.912,0,0,1-2.382-1.215c-2.105-2.9-3.173-5.088-3.173-6.49a5.555,5.555,0,0,1,11.11,0c0,1.4-1.068,3.585-3.173,6.49A2.912,2.912,0,0,1,7.5,13.258ZM7.5,1.2a4.355,4.355,0,0,0-4.35,4.35c0,1.11,1.046,3.164,2.944,5.782a1.737,1.737,0,0,0,2.812,0c1.9-2.618,2.944-4.672,2.944-5.782A4.355,4.355,0,0,0,7.5,1.2Z" transform="translate(-1.945 0.002)" fill="#7b7b7b"/>
</svg>
