<svg xmlns="http://www.w3.org/2000/svg" width="18.75" height="15" viewBox="0 0 18.75 15">
  <g id="icon_mail" transform="translate(0.5 -4)">
    <path id="Path_3537" data-name="Path 3537" d="M17.444,4H3.306A2.308,2.308,0,0,0,1,6.306V16.694A2.308,2.308,0,0,0,3.306,19H17.444a2.308,2.308,0,0,0,2.306-2.306V6.306A2.308,2.308,0,0,0,17.444,4ZM3.306,5.25H17.444A1.057,1.057,0,0,1,18.5,6.306v.478l-8.125,5.223L2.25,6.784V6.306A1.057,1.057,0,0,1,3.306,5.25Zm14.139,12.5H3.306A1.057,1.057,0,0,1,2.25,16.694V8.27l7.787,5.006a.625.625,0,0,0,.676,0L18.5,8.27v8.424a1.057,1.057,0,0,1-1.056,1.056Z" transform="translate(-1.5)" fill="#828282"/>
  </g>
</svg>
