<svg xmlns="http://www.w3.org/2000/svg" xmlns:xlink="http://www.w3.org/1999/xlink" width="351.203" height="300" viewBox="0 0 351.203 300">
  <defs>
    <clipPath id="clip-path">
      <path id="Path_104" data-name="Path 104" d="M-1871.683,1008.215a36.6,36.6,0,0,0,24.069-9.029l1.233-1.075a37.033,37.033,0,0,1,22.9-9.111q1.466-.061,2.939,0l11.637.461,4.628-38.73h-31.354Z" transform="translate(1871.683 -950.728)" fill="none"/>
    </clipPath>
    <clipPath id="clip-path-2">
      <path id="Path_134" data-name="Path 134" d="M-1792.977,849.624l92.307,50.458,9.742-18.083-92.307-50.458Z" transform="translate(1792.977 -831.542)" fill="none"/>
    </clipPath>
  </defs>
  <g id="vect-03" transform="translate(-12 -236)">
    <g id="Group_24" data-name="Group 24" transform="translate(-202.617 -4.617)">
      <path id="Path_14" data-name="Path 14" d="M540.617,339.125a98.508,98.508,0,0,0-98.508-98.508h0a98.046,98.046,0,0,0-51.492,14.515,98.046,98.046,0,0,0-51.492-14.515h0a98.508,98.508,0,0,0-98.508,98.508h0a98.046,98.046,0,0,0,14.515,51.492,98.046,98.046,0,0,0-14.515,51.492h0a98.508,98.508,0,0,0,98.508,98.508h0A98.044,98.044,0,0,0,390.617,526.1a98.045,98.045,0,0,0,51.492,14.515h0a98.508,98.508,0,0,0,98.508-98.508h0A98.045,98.045,0,0,0,526.1,390.617a98.044,98.044,0,0,0,14.515-51.492Z" transform="translate(0 0)" fill="#def2ff"/>
      <g id="Group_18" data-name="Group 18" transform="translate(497.428 450.392)">
        <path id="Path_15" data-name="Path 15" d="M3313.595,2752.594l3.186,1.932a6.24,6.24,0,0,0,6.473,0l3.186-1.932-1.932,3.186a6.241,6.241,0,0,0,0,6.473l1.932,3.186-3.186-1.932a6.241,6.241,0,0,0-6.473,0l-3.186,1.932,1.932-3.186a6.24,6.24,0,0,0,0-6.473Z" transform="translate(-3312.756 -2751.755)" fill="#94e3ff"/>
        <path id="Path_16" data-name="Path 16" d="M3304.433,2757.116a.839.839,0,0,1-.717-1.273l1.932-3.186a5.387,5.387,0,0,0,0-5.6l-1.932-3.186a.838.838,0,0,1,1.152-1.152l3.186,1.932a5.384,5.384,0,0,0,5.6,0l3.186-1.932a.838.838,0,0,1,1.152,1.152l-1.932,3.186a5.386,5.386,0,0,0,0,5.6l1.932,3.186a.838.838,0,0,1-1.152,1.151l-3.186-1.932a5.385,5.385,0,0,0-5.6,0l-3.186,1.932A.836.836,0,0,1,3304.433,2757.116Zm2.492-11.191.157.259a7.059,7.059,0,0,1,0,7.342l-.157.259.259-.157a7.058,7.058,0,0,1,7.342,0l.259.157-.157-.259a7.058,7.058,0,0,1,0-7.342l.157-.259-.259.157a7.057,7.057,0,0,1-7.342,0Z" transform="translate(-3303.594 -2742.595)" fill="#3b5c91"/>
      </g>
      <g id="Group_19" data-name="Group 19" transform="translate(503.85 262.493)">
        <path id="Path_17" data-name="Path 17" d="M3390.19,520.611l3.619-.886a6.241,6.241,0,0,0,4.577-4.577l.887-3.619.886,3.619a6.24,6.24,0,0,0,4.577,4.577l3.619.886-3.619.886a6.24,6.24,0,0,0-4.577,4.577l-.886,3.619-.887-3.619a6.24,6.24,0,0,0-4.577-4.577Z" transform="translate(-3389.352 -510.691)" fill="#ffd385"/>
        <path id="Path_18" data-name="Path 18" d="M3390.11,521.37h0a.838.838,0,0,1-.814-.639l-.886-3.619a5.386,5.386,0,0,0-3.962-3.962l-3.619-.886a.838.838,0,0,1,0-1.629l3.619-.886a5.386,5.386,0,0,0,3.962-3.962l.886-3.619a.838.838,0,0,1,1.628,0l.887,3.619a5.384,5.384,0,0,0,3.962,3.962l3.619.886a.838.838,0,0,1,0,1.629l-3.619.886a5.384,5.384,0,0,0-3.962,3.962l-.887,3.619A.838.838,0,0,1,3390.11,521.37Zm-5.558-9.921.294.072a7.057,7.057,0,0,1,5.192,5.192l.072.294.072-.294a7.057,7.057,0,0,1,5.192-5.192l.294-.072-.294-.072a7.057,7.057,0,0,1-5.192-5.192l-.072-.294-.072.294a7.057,7.057,0,0,1-5.192,5.192Z" transform="translate(-3380.19 -501.529)" fill="#3b5c91"/>
      </g>
      <g id="Group_20" data-name="Group 20" transform="translate(248.525 321.303)">
        <path id="Path_19" data-name="Path 19" d="M345.024,1216.1l2.952,11.018a2.492,2.492,0,0,0,4.169,1.117l8.065-8.066a2.492,2.492,0,0,0-1.117-4.169l-11.018-2.952A2.492,2.492,0,0,0,345.024,1216.1Z" transform="translate(-344.098 -1212.127)" fill="#ffd385"/>
        <path id="Path_20" data-name="Path 20" d="M341.233,1220.646a3.384,3.384,0,0,1-.877-.116,3.3,3.3,0,0,1-2.355-2.355l-2.952-11.018h0a3.33,3.33,0,0,1,4.079-4.078l11.018,2.952a3.33,3.33,0,0,1,1.493,5.572l-8.066,8.066A3.293,3.293,0,0,1,341.233,1220.646Zm-4.564-13.923,2.952,11.018a1.653,1.653,0,0,0,2.766.741l8.065-8.066a1.653,1.653,0,0,0-.741-2.766l-11.018-2.952a1.653,1.653,0,0,0-2.025,2.025Z" transform="translate(-334.932 -1202.962)" fill="#3b5c91"/>
      </g>
      <g id="Group_21" data-name="Group 21" transform="translate(395.182 510.844)">
        <path id="Path_21" data-name="Path 21" d="M2107.877,3487.768l1.87-11.252a2.492,2.492,0,0,0-3.333-2.742l-10.68,4.006a2.492,2.492,0,0,0-.708,4.258l8.809,7.246A2.492,2.492,0,0,0,2107.877,3487.768Z" transform="translate(-2093.278 -3472.773)" fill="#ff9494"/>
        <path id="Path_22" data-name="Path 22" d="M2096.236,3481.523a3.3,3.3,0,0,1-2.1-.762l-8.809-7.246a3.33,3.33,0,0,1,.946-5.69l10.68-4.006a3.33,3.33,0,0,1,4.455,3.664l-1.87,11.252a3.3,3.3,0,0,1-2.115,2.572A3.356,3.356,0,0,1,2096.236,3481.523Zm1.887-16.242a1.669,1.669,0,0,0-.586.107l-10.679,4.006a1.653,1.653,0,0,0-.47,2.825l8.81,7.246a1.653,1.653,0,0,0,2.681-1.006h0l1.87-11.252a1.657,1.657,0,0,0-1.625-1.927Z" transform="translate(-2084.106 -3463.602)" fill="#3b5c91"/>
      </g>
      <g id="Group_22" data-name="Group 22" transform="translate(248.336 479.039)">
        <path id="Path_23" data-name="Path 23" d="M341.767,3090.7l3.216-3.216a1.881,1.881,0,0,0-2.661-2.661l-3.216,3.216-3.216-3.216a1.881,1.881,0,1,0-2.66,2.661l3.216,3.216-3.216,3.216a1.881,1.881,0,1,0,2.66,2.66l3.216-3.216,3.216,3.216a1.881,1.881,0,1,0,2.661-2.66Z" transform="translate(-332.679 -3084.272)" fill="#ff9494"/>
      </g>
      <g id="Group_23" data-name="Group 23" transform="translate(355.654 252.436)">
        <path id="Path_24" data-name="Path 24" d="M1625.857,387.337h-4.073v-4.073a1.685,1.685,0,0,0-3.37,0v4.073h-4.073a1.685,1.685,0,0,0,0,3.37h4.073v4.073a1.685,1.685,0,0,0,3.37,0v-4.073h4.073a1.685,1.685,0,0,0,0-3.37Z" transform="translate(-1612.656 -381.579)" fill="#ff9494"/>
      </g>
    </g>
    <g id="Group_68" data-name="Group 68" transform="translate(1899.355 -430.331)">
      <path id="Path_85" data-name="Path 85" d="M-1543.754,1036.17h-336a7.6,7.6,0,0,1-7.6-7.6h0a7.6,7.6,0,0,1,7.6-7.6h336a7.6,7.6,0,0,1,7.6,7.6h0A7.6,7.6,0,0,1-1543.754,1036.17Z" transform="translate(0 -72.786)" fill="#262678"/>
      <g id="Group_66" data-name="Group 66" transform="translate(-1875.343 709.278)">
        <g id="Group_56" data-name="Group 56" transform="translate(184.728 183.333)">
          <path id="Path_86" data-name="Path 86" d="M-1588.708,1007.9l-24.142.624-15.082-.058-.464-10.221-2.278-49.779,38.869.218,1.509,28.88Z" transform="translate(1630.675 -948.467)" fill="#dc9928"/>
          <path id="Path_87" data-name="Path 87" d="M-1559.476,1017.552l-52.682-.189-15.081-.057-.464-10.222c10.8-3.04,30.853-9.343,38.1-20.682.021-.029.036-.058.057-.087.856,6.928.015,12.615,8.126,15.089l1.567.479A36.616,36.616,0,0,1-1559.476,1017.552Z" transform="translate(1629.981 -957.305)" fill="#fff"/>
          <path id="Path_88" data-name="Path 88" d="M-1591.2,1001.08s-5.75-12.261,9.914-14.67Z" transform="translate(1621.697 -957.327)" fill="#fff"/>
          <path id="Path_89" data-name="Path 89" d="M-1592.212,999.627s8.654,18.326,23.745,6.674" transform="translate(1621.693 -960.414)" fill="none" stroke="#06141a" stroke-linecap="round" stroke-miterlimit="10" stroke-width="1"/>
          <g id="Group_55" data-name="Group 55" transform="translate(2.699 55.578)">
            <line id="Line_27" data-name="Line 27" x2="64.098" y2="0.115" fill="none" stroke="#06141a" stroke-linecap="round" stroke-miterlimit="10" stroke-width="1"/>
          </g>
          <path id="Path_90" data-name="Path 90" d="M-1585.081,994.342s1.479-2,5.77-3.181" transform="translate(1620.028 -958.437)" fill="none" stroke="#06141a" stroke-linecap="round" stroke-miterlimit="10" stroke-width="1"/>
          <path id="Path_91" data-name="Path 91" d="M-1582.282,1000.506a10.847,10.847,0,0,1,4.66-2.589" transform="translate(1619.374 -960.014)" fill="none" stroke="#06141a" stroke-linecap="round" stroke-miterlimit="10" stroke-width="1"/>
          <path id="Path_92" data-name="Path 92" d="M-1577.939,1005.628a18.6,18.6,0,0,1,4.114-2.374" transform="translate(1618.36 -961.261)" fill="none" stroke="#06141a" stroke-linecap="round" stroke-miterlimit="10" stroke-width="1"/>
          <line id="Line_28" data-name="Line 28" y1="2.294" x2="3.956" transform="translate(45.089 44.367)" fill="none" stroke="#06141a" stroke-linecap="round" stroke-miterlimit="10" stroke-width="1"/>
        </g>
        <path id="Path_93" data-name="Path 93" d="M-1741.881,839.82V982.864h21.786a34.631,34.631,0,0,0,34.631-34.886l-.7-95.605Z" transform="translate(1841.372 -739.763)" fill="#262678"/>
        <path id="Path_94" data-name="Path 94" d="M-1668.217,868.93l44.871,9.5a39.77,39.77,0,0,1,31.014,32.5l9.6,58.841H-1639.5l-3.5-46.982-31.754-4.432Z" transform="translate(1825.694 -746.56)" fill="#262678"/>
        <path id="Path_95" data-name="Path 95" d="M-1643.83,711.257s-11.642-3.245-8.1,18.965l11.217-8.281Z" transform="translate(1820.523 -709.702)" fill="#06141a"/>
        <g id="Group_59" data-name="Group 59" transform="translate(0 185.009)">
          <path id="Path_96" data-name="Path 96" d="M-1871.683,1008.141a36.6,36.6,0,0,0,24.069-9.029l1.233-1.075a37.033,37.033,0,0,1,22.9-9.111q1.466-.061,2.939,0l11.637.461,4.628-38.73h-31.354Z" transform="translate(1871.683 -950.654)" fill="#fff"/>
          <path id="Path_97" data-name="Path 97" d="M-1810.128,988.925q1.466-.061,2.939,0l11.637.461,4.628-38.73h-20.988C-1814.075,958.29-1817.143,974.429-1810.128,988.925Z" transform="translate(1858.324 -950.654)" fill="#dc9928"/>
          <path id="Path_98" data-name="Path 98" d="M-1819.938,984.609s14.764-2.361,8.535,12.212Z" transform="translate(1859.599 -958.55)" fill="#fff"/>
          <path id="Path_99" data-name="Path 99" d="M-1820.295,984.819s-23.838,3.974-21.916,22.942" transform="translate(1864.826 -958.632)" fill="none" stroke="#06141a" stroke-linecap="round" stroke-miterlimit="10" stroke-width="1"/>
          <path id="Path_100" data-name="Path 100" d="M-1817.387,992.812s1.028,2.169.228,6.851" transform="translate(1859.004 -960.499)" fill="none" stroke="#06141a" stroke-linecap="round" stroke-miterlimit="10" stroke-width="1"/>
          <path id="Path_101" data-name="Path 101" d="M-1823.643,994.3a17.265,17.265,0,0,1,.456,7.079" transform="translate(1860.465 -960.847)" fill="none" stroke="#06141a" stroke-linecap="round" stroke-miterlimit="10" stroke-width="1"/>
          <path id="Path_102" data-name="Path 102" d="M-1829.5,996.836s1.179,4.223.723,6.735" transform="translate(1861.833 -961.439)" fill="none" stroke="#06141a" stroke-linecap="round" stroke-miterlimit="10" stroke-width="1"/>
          <path id="Path_103" data-name="Path 103" d="M-1835.71,1001.005s1.827,3.54,1.6,6.166" transform="translate(1863.283 -962.412)" fill="none" stroke="#06141a" stroke-linecap="round" stroke-miterlimit="10" stroke-width="1"/>
          <g id="Group_58" data-name="Group 58" transform="translate(0 0.057)">
            <g id="Group_57" data-name="Group 57" clip-path="url(#clip-path)">
              <line id="Line_29" data-name="Line 29" x1="47.605" y2="76.311" transform="translate(-3.001 -5.434)" fill="none" stroke="#06141a" stroke-linecap="round" stroke-miterlimit="10" stroke-width="1"/>
            </g>
          </g>
        </g>
        <path id="Path_105" data-name="Path 105" d="M-1651.287,801.476l-21.3,1.781,3.586,32.931-10.846,21.4-62.036-40.127,29.318-46.792,15.156-28.622,40.908,18.392a25.792,25.792,0,0,1,15.189,21.121Z" transform="translate(1841.372 -716.931)" fill="#fff"/>
        <path id="Path_106" data-name="Path 106" d="M-1674.387,746.309l-2.924,47.342,7.444.927,3.005-44.777Z" transform="translate(1826.293 -717.926)" fill="#262678"/>
        <path id="Path_107" data-name="Path 107" d="M-1645.076,759.57-1648,806.912l6.065.4,2.664-45.162Z" transform="translate(1819.448 -721.022)" fill="#262678"/>
        <path id="Path_108" data-name="Path 108" d="M-1663.692,746.169l12.024-16.3,8.881,4.268-5.992,18.705C-1649.564,756.475-1656.579,764.214-1663.692,746.169Z" transform="translate(1823.113 -714.086)" fill="#dc9928"/>
        <path id="Path_109" data-name="Path 109" d="M-1690.331,774.456l28.516,8.559-2.24,41.728-2.971,49.407-73.09-33.548,22.812-41.015,9.516-3.11a19.6,19.6,0,0,0,11.474-9.934Z" transform="translate(1840.959 -724.499)" fill="#262678"/>
        <path id="Path_110" data-name="Path 110" d="M-1742.983,1008.631H-1813.1l22.495-58.193,53.9-.714Z" transform="translate(1858.002 -765.427)" fill="#262678"/>
        <path id="Path_111" data-name="Path 111" d="M-1630.165,723.087s3.261,8.473-6.022,18.157c-1.206,1.258-5.59.373-7.195.077L-1650,727.589S-1642.912,711.843-1630.165,723.087Z" transform="translate(1819.915 -711.557)" fill="#dc9928"/>
        <path id="Path_112" data-name="Path 112" d="M-1633.046,731.638c-.158.474-.566.766-.911.651a.813.813,0,0,1-.339-1.068c.159-.474.567-.766.911-.651A.813.813,0,0,1-1633.046,731.638Z" transform="translate(1816.263 -714.245)" fill="#06141a"/>
        <path id="Path_113" data-name="Path 113" d="M-1626,733.947c-.195.461-.625.719-.96.576a.812.812,0,0,1-.253-1.091c.195-.461.625-.719.96-.577A.813.813,0,0,1-1626,733.947Z" transform="translate(1814.616 -714.775)" fill="#06141a"/>
        <path id="Path_114" data-name="Path 114" d="M-1637.25,740.981l4.4,1.328S-1635.606,746.6-1637.25,740.981Z" transform="translate(1816.938 -716.682)" fill="#fff"/>
        <path id="Path_115" data-name="Path 115" d="M-1641.8,746.4s-2.175-.48-3.574-6.2c0,0-3.932,7.242,1.51,12.128Z" transform="translate(1819.156 -716.499)" fill="#06141a"/>
        <path id="Path_116" data-name="Path 116" d="M-1647.727,729.326a4.078,4.078,0,0,1-5.653,1.073,4.077,4.077,0,0,1-.567-5.726,4.077,4.077,0,0,1,5.653-1.074A4.077,4.077,0,0,1-1647.727,729.326Z" transform="translate(1821.049 -712.454)" fill="#dc9928"/>
        <path id="Path_117" data-name="Path 117" d="M-1650.645,725.574c.061.088,1.342,1.806,1.738,2.337a.116.116,0,0,1-.082.184l-2.393.345" transform="translate(1820.238 -713.084)" fill="none" stroke="#06141a" stroke-linecap="round" stroke-miterlimit="10" stroke-width="1"/>
        <path id="Path_118" data-name="Path 118" d="M-1632.758,736.507a5.18,5.18,0,0,0,2.135.534,9.2,9.2,0,0,1,1.3-4.568,3.328,3.328,0,0,1,2.049-1.542,2.485,2.485,0,0,1,1.551.094" transform="translate(1815.889 -714.316)" fill="none" stroke="#06141a" stroke-linecap="round" stroke-miterlimit="10" stroke-width="1"/>
        <path id="Path_119" data-name="Path 119" d="M-1634.625,728.066c3.193-.852,3.525,1.669,3.525,1.669" transform="translate(1816.325 -713.624)" fill="none" stroke="#06141a" stroke-linecap="round" stroke-miterlimit="10" stroke-width="1"/>
        <path id="Path_120" data-name="Path 120" d="M-1647.3,720.135c2.181,1.6,1.217,4.524,1.217,4.524l1.539.335s3.18-.023,4.686-6.95c0,0,2.5,2.559,9.737,5.223a5.866,5.866,0,0,0,5.52-.8l2.005-1.489-3.212-.6,2.342-2.61-5.421-.2a14.155,14.155,0,0,0-13.785-6.291S-1649.189,718.756-1647.3,720.135Z" transform="translate(1819.365 -709.72)" fill="#06141a"/>
        <path id="Path_121" data-name="Path 121" d="M-1667.9,776.632v.408a3.68,3.68,0,0,1-4.512,3.584h0a3.679,3.679,0,0,1-2.845-3.694l.054-1.941" transform="translate(1825.813 -724.623)" fill="none" stroke="#06141a" stroke-linecap="round" stroke-miterlimit="10" stroke-width="1"/>
        <path id="Path_122" data-name="Path 122" d="M-1645.544,782.77a3.349,3.349,0,0,0,2.191,3.8,2.642,2.642,0,0,0,3.612-2.2" transform="translate(1818.885 -726.44)" fill="none" stroke="#06141a" stroke-linecap="round" stroke-miterlimit="10" stroke-width="1"/>
        <path id="Path_123" data-name="Path 123" d="M-1652.175,788.162l-13.627-3.545-1.006,7.788,13.7,3.1Z" transform="translate(1823.84 -726.871)" fill="none" stroke="#06141a" stroke-linecap="round" stroke-miterlimit="10" stroke-width="1"/>
        <path id="Path_124" data-name="Path 124" d="M-1741.091,855.264l3.207,89.795a10.358,10.358,0,0,1-10.294,10.728l-48.037.268" transform="translate(1854.06 -743.369)" fill="none" stroke="#06141a" stroke-linecap="round" stroke-miterlimit="10" stroke-width="1"/>
        <path id="Path_125" data-name="Path 125" d="M-1626.785,718.163s1.892-3.995-4.625-7.568-12.824,1.261-12.824,1.261Z" transform="translate(1818.569 -709.278)" fill="#06141a"/>
        <path id="Path_126" data-name="Path 126" d="M-1645.284,812.955l-6.067,2.908-1.25,14.887-32.049,38.786,17.615,6.635,27.947-19.261a28.041,28.041,0,0,0,12.1-24.349l-1.168-25.981Z" transform="translate(1828.007 -732)" fill="#dc9928"/>
        <g id="Group_63" data-name="Group 63" transform="translate(37.039 79.622)">
          <g id="Group_60" data-name="Group 60">
            <path id="Path_127" data-name="Path 127" d="M-1672.9,895.348l-7.527,15.384,8.419,14.335a13.143,13.143,0,0,0,7.883,6.031l13.366,3.642,4.39-3.476-11.789-11.824a2.931,2.931,0,0,1-.127-3.979l4.773-5.491a2.927,2.927,0,0,1,4.617.253l10.024,15.1c1.808-1.433,3.565-2.828,5.166-4.1l-6.135-16.96a13.152,13.152,0,0,0-12.976-9.454Z" transform="translate(1789.982 -832.225)" fill="#d4d4d4"/>
            <path id="Path_128" data-name="Path 128" d="M-1821.07,823.207a19.1,19.1,0,0,0,7.758,25.875,19.1,19.1,0,0,0,25.878-7.756,19.107,19.107,0,0,0-7.758-25.88A19.1,19.1,0,0,0-1821.07,823.207Zm10.393.3a10.922,10.922,0,0,1,15.31,1.913,10.922,10.922,0,0,1-1.911,15.308,10.924,10.924,0,0,1-15.31-1.909A10.925,10.925,0,0,1-1810.676,823.509Z" transform="translate(1823.359 -813.158)" fill="#d4d4d4"/>
            <path id="Path_129" data-name="Path 129" d="M-1793.011,849.65l92.307,50.458,9.742-18.083-92.307-50.458Z" transform="translate(1816.272 -817.457)" fill="#d4d4d4"/>
          </g>
          <path id="Path_130" data-name="Path 130" d="M-1686.328,900.272l5.582,3.308a2.136,2.136,0,0,0,2.927-.749h0a2.137,2.137,0,0,0-.749-2.927l-5.582-3.308a2.136,2.136,0,0,0-2.927.749h0A2.136,2.136,0,0,0-1686.328,900.272Z" transform="translate(1791.604 -832.573)" fill="none" stroke="#06141a" stroke-linecap="round" stroke-miterlimit="10" stroke-width="1"/>
          <path id="Path_131" data-name="Path 131" d="M-1633.33,913.451l-3.1-7.86a9.825,9.825,0,0,0-10.4-6.133l-5.96.774" transform="translate(1783.53 -833.291)" fill="none" stroke="#fff" stroke-linecap="round" stroke-miterlimit="10" stroke-width="1"/>
          <g id="Group_62" data-name="Group 62" transform="translate(23.287 14.091)">
            <g id="Group_61" data-name="Group 61" clip-path="url(#clip-path-2)">
              <path id="Path_132" data-name="Path 132" d="M-1700.359,902.679c-.2-.562-3.068-49.664-3.068-49.664" transform="translate(1772.065 -836.556)" fill="none" stroke="#fff" stroke-linecap="round" stroke-miterlimit="10" stroke-width="1"/>
              <path id="Path_133" data-name="Path 133" d="M-1710,899.9c-.2-.562-3.068-49.664-3.068-49.664" transform="translate(1774.316 -835.907)" fill="none" stroke="#fff" stroke-linecap="round" stroke-miterlimit="10" stroke-width="1"/>
            </g>
          </g>
          <circle id="Ellipse_3" data-name="Ellipse 3" cx="13.833" cy="13.833" r="13.833" transform="translate(4.282 31.399) rotate(-84.474)" fill="none" stroke="#fff" stroke-linecap="round" stroke-miterlimit="10" stroke-width="1"/>
          <path id="Path_135" data-name="Path 135" d="M-1808.094,825.964A10.925,10.925,0,0,0-1810,841.277a10.924,10.924,0,0,0,15.31,1.908,10.922,10.922,0,0,0,1.911-15.308A10.922,10.922,0,0,0-1808.094,825.964Zm-1.741,4.357,7.891-4.873,8.168,4.4.271,9.272-7.891,4.872-8.167-4.4Z" transform="translate(1820.777 -815.613)" fill="#06141a"/>
          <line id="Line_30" data-name="Line 30" x2="2.443" y2="6.635" transform="translate(151.644 83.986)" fill="none" stroke="#fff" stroke-linecap="round" stroke-miterlimit="10" stroke-width="1"/>
          <line id="Line_31" data-name="Line 31" x1="10.18" y1="9.803" transform="translate(131.741 90.585)" fill="none" stroke="#fff" stroke-linecap="round" stroke-miterlimit="10" stroke-width="1"/>
        </g>
        <g id="Group_64" data-name="Group 64" transform="translate(81.795 65.519)">
          <path id="Path_136" data-name="Path 136" d="M-1738.568,826.17l-1.173,24.1,2.838,6.85-3.6,1.279.647,11.607a3.371,3.371,0,0,1-4.626,1.733l-11.567-5.784a6.661,6.661,0,0,1-3.543-4.6c-1.591-7.65-2.218-30.5-3.925-39.972-.092-.509-.331-1.584-.668-3.029-3.061-13.149,2.954-22.652,16.422-23.593h0Z" transform="translate(1764.967 -794.759)" fill="#dc9928"/>
          <path id="Path_137" data-name="Path 137" d="M-1734.156,864.145l8.711,12.839a2.323,2.323,0,0,1,.017,2.42h0a2.322,2.322,0,0,1-3.441.618l-6.267-5.013Z" transform="translate(1758.001 -810.962)" fill="#dc9928"/>
          <line id="Line_32" data-name="Line 32" x2="0.647" y2="5.766" transform="translate(17.874 69.768)" fill="none" stroke="#06141a" stroke-linecap="round" stroke-miterlimit="10" stroke-width="1"/>
          <line id="Line_33" data-name="Line 33" x2="0.532" y2="4.282" transform="translate(13.326 69.127)" fill="none" stroke="#06141a" stroke-linecap="round" stroke-miterlimit="10" stroke-width="1"/>
          <line id="Line_34" data-name="Line 34" x2="0.352" y2="3.29" transform="translate(9.23 67.696)" fill="none" stroke="#06141a" stroke-linecap="round" stroke-miterlimit="10" stroke-width="1"/>
        </g>
        <path id="Path_138" data-name="Path 138" d="M-1707.629,904.4h0a3.373,3.373,0,0,1,4.636-3.547l11.456,4.75a3.415,3.415,0,0,1,2.047,3.792l-.428,2.243a3.414,3.414,0,0,1-5.2,2.233l-10.99-7.065A3.374,3.374,0,0,1-1707.629,904.4Z" transform="translate(1833.38 -753.953)" fill="#dc9928"/>
        <path id="Path_139" data-name="Path 139" d="M-1638.725,787.578l-2.97,27.643,28.463-.212-4.756-23.85Z" transform="translate(1817.976 -727.563)" fill="#fff"/>
        <path id="Path_140" data-name="Path 140" d="M-1642.032,848.691a66.225,66.225,0,0,0,6.888,1.358" transform="translate(1818.055 -741.834)" fill="none" stroke="#06141a" stroke-linecap="round" stroke-miterlimit="10" stroke-width="1"/>
        <path id="Path_141" data-name="Path 141" d="M-1701.309,901.864c-.11.333-1.108,6.209-1.108,6.209" transform="translate(1832.156 -754.251)" fill="none" stroke="#06141a" stroke-linecap="round" stroke-miterlimit="10" stroke-width="1"/>
        <line id="Line_35" data-name="Line 35" x1="1.22" y2="7.207" transform="translate(133.952 149.165)" fill="none" stroke="#06141a" stroke-linecap="round" stroke-miterlimit="10" stroke-width="1"/>
        <line id="Line_36" data-name="Line 36" x1="1.234" y2="8.642" transform="translate(138.262 151.272)" fill="none" stroke="#06141a" stroke-linecap="round" stroke-miterlimit="10" stroke-width="1"/>
        <path id="Path_142" data-name="Path 142" d="M-1750.236,774.012l-14.232,20.36a17.76,17.76,0,0,0-3.044,12.551l6.521,44.813s21.378-4.935,20.617-6.312,2.3-36.463,2.3-36.463l13.882-22.539Z" transform="translate(1847.394 -724.395)" fill="#dc9928"/>
        <g id="Group_65" data-name="Group 65" transform="translate(88.567 23.225)">
          <path id="Path_143" data-name="Path 143" d="M-1756.133,772.7l39.253,13.854,24.086-41.821-4.417-1.912a39.335,39.335,0,0,0-37.662,3.5,39.07,39.07,0,0,0-9.766,9.441c-.268.361-.526.732-.78,1.107Z" transform="translate(1756.133 -739.579)" fill="#fff"/>
          <line id="Line_37" data-name="Line 37" y1="13.587" x2="8.727" transform="translate(31.514 30.515)" fill="none" stroke="#06141a" stroke-linecap="round" stroke-miterlimit="10" stroke-width="1"/>
          <line id="Line_38" data-name="Line 38" x1="6.002" y2="3.326" transform="translate(36.397 33.452)" fill="none" stroke="#06141a" stroke-linecap="round" stroke-miterlimit="10" stroke-width="1"/>
          <path id="Path_144" data-name="Path 144" d="M-1733.646,766.715c1.739,1.739,5.218,1.082,7.768-1.469s3.209-6.028,1.47-7.768-5.217-1.082-7.768,1.469S-1735.385,764.975-1733.646,766.715Z" transform="translate(1751.109 -743.532)" fill="#06141a"/>
          <line id="Line_39" data-name="Line 39" y1="35.162" x2="23.185" transform="translate(10.112 1.235)" fill="none" stroke="#06141a" stroke-linecap="round" stroke-miterlimit="10" stroke-width="1"/>
        </g>
      </g>
      <g id="Group_67" data-name="Group 67" transform="translate(-1663.198 816.403)">
        <rect id="Rectangle_21" data-name="Rectangle 21" width="116.409" height="136.48" fill="#d4d4d4"/>
        <line id="Line_40" data-name="Line 40" y2="136.466" transform="translate(88.035 0.013)" fill="none" stroke="#fff" stroke-linecap="round" stroke-miterlimit="10" stroke-width="1"/>
        <rect id="Rectangle_22" data-name="Rectangle 22" width="87.715" height="113.157" transform="translate(0 23.323)" fill="#d4d4d4"/>
        <line id="Line_41" data-name="Line 41" x2="87.361" transform="translate(0.203 19.001)" fill="none" stroke="#fff" stroke-linecap="round" stroke-miterlimit="10" stroke-width="1"/>
        <path id="Path_145" data-name="Path 145" d="M-1550.268,974.208a36.952,36.952,0,0,1-36.911-36.911,36.953,36.953,0,0,1,36.911-36.911,36.953,36.953,0,0,1,36.911,36.911A36.953,36.953,0,0,1-1550.268,974.208Z" transform="translate(1593.1 -861.03)" fill="none" stroke="#fff" stroke-linecap="round" stroke-miterlimit="10" stroke-width="1"/>
        <rect id="Rectangle_23" data-name="Rectangle 23" width="56.412" height="56.412" rx="28.206" transform="translate(71.039 48.061) rotate(90)" fill="#06141a"/>
        <rect id="Rectangle_24" data-name="Rectangle 24" width="15.354" height="7.326" transform="translate(66.17 6.164)" fill="#06141a"/>
        <rect id="Rectangle_25" data-name="Rectangle 25" width="15.354" height="7.326" transform="translate(66.17 124.066)" fill="#fff"/>
        <rect id="Rectangle_26" data-name="Rectangle 26" width="15.354" height="7.326" transform="translate(6.27 6.164)" fill="none" stroke="#fff" stroke-linecap="round" stroke-miterlimit="10" stroke-width="1"/>
        <path id="Path_146" data-name="Path 146" d="M-1529.2,860.756a3.844,3.844,0,0,0,3.844,3.844,3.844,3.844,0,0,0,3.844-3.844,3.844,3.844,0,0,0-3.844-3.844A3.844,3.844,0,0,0-1529.2,860.756Z" transform="translate(1579.562 -850.878)" fill="#fff"/>
        <path id="Path_147" data-name="Path 147" d="M-1542.456,860.756a3.844,3.844,0,0,0,3.844,3.844,3.844,3.844,0,0,0,3.844-3.844,3.844,3.844,0,0,0-3.844-3.844A3.844,3.844,0,0,0-1542.456,860.756Z" transform="translate(1582.657 -850.878)" fill="#fff"/>
        <path id="Path_148" data-name="Path 148" d="M-1555.709,860.756a3.844,3.844,0,0,0,3.844,3.844,3.844,3.844,0,0,0,3.844-3.844,3.844,3.844,0,0,0-3.844-3.844A3.844,3.844,0,0,0-1555.709,860.756Z" transform="translate(1585.751 -850.878)" fill="#fff"/>
      </g>
    </g>
  </g>
</svg>
