<svg xmlns="http://www.w3.org/2000/svg" width="20" height="20" viewBox="0 0 20 20">
  <path id="icon_plus" d="M14.167,10a.833.833,0,0,1-.833.833h-2.5v2.5a.833.833,0,0,1-1.667,0v-2.5h-2.5a.833.833,0,1,1,0-1.667h2.5v-2.5a.833.833,0,1,1,1.667,0v2.5h2.5A.833.833,0,0,1,14.167,10ZM20,4.167V15.833A4.171,4.171,0,0,1,15.833,20H4.167A4.171,4.171,0,0,1,0,15.833V4.167A4.171,4.171,0,0,1,4.167,0H15.833A4.171,4.171,0,0,1,20,4.167Zm-1.667,0a2.5,2.5,0,0,0-2.5-2.5H4.167a2.5,2.5,0,0,0-2.5,2.5V15.833a2.5,2.5,0,0,0,2.5,2.5H15.833a2.5,2.5,0,0,0,2.5-2.5Z" fill="#dc9928"/>
</svg>
