<svg xmlns="http://www.w3.org/2000/svg" width="34" height="26.573" viewBox="0 0 34 26.573">
  <g id="icon_provider" transform="translate(-2 -8.99)">
    <g id="Group_3860" data-name="Group 3860" transform="translate(2 8.99)">
      <g id="Group_3842" data-name="Group 3842" transform="translate(8.673 5.84)">
        <path id="Path_4755" data-name="Path 4755" d="M20.242,30.927H30.88c.077-1.08.406-2.685,1.638-3.366a4.486,4.486,0,0,0,1.424-1.285A5.608,5.608,0,0,0,34.948,23V20.911a.9.9,0,0,0-.9-.9H27.7a.9.9,0,0,0-.881.727l-.015-.007H18.6a14.515,14.515,0,0,0,1.27,8.735A3.4,3.4,0,0,1,20.242,30.927Z" transform="translate(-18.39 -20.015)" fill="#ffb6bd"/>
      </g>
      <g id="Group_3843" data-name="Group 3843" transform="translate(8.699 6.559)">
        <path id="Path_4756" data-name="Path 4756" d="M23.51,30.1a3.325,3.325,0,0,1,.367,1.457H20.238a3.325,3.325,0,0,0-.367-1.457A14.467,14.467,0,0,1,18.6,21.368h3.638A14.469,14.469,0,0,0,23.51,30.1Z" transform="translate(-18.388 -21.368)" fill="#f2a5b1"/>
      </g>
      <g id="Group_3844" data-name="Group 3844" transform="translate(8.957 16.715)">
        <path id="Path_4757" data-name="Path 4757" d="M32.8,41.917a1.447,1.447,0,0,1-1.447,1.447h-11a1.447,1.447,0,0,1,0-2.895h11A1.447,1.447,0,0,1,32.8,41.917Z" transform="translate(-18.91 -40.47)" fill="#6c6"/>
      </g>
      <g id="Group_3845" data-name="Group 3845" transform="translate(8.975 16.716)">
        <path id="Path_4758" data-name="Path 4758" d="M25.563,43.366h-5.2a1.445,1.445,0,0,1-1.447-1.447,1.423,1.423,0,0,1,.424-1.023,1.441,1.441,0,0,1,1.023-.424h5.2a1.447,1.447,0,0,0-1.447,1.447,1.445,1.445,0,0,0,1.447,1.447Z" transform="translate(-18.912 -40.472)" fill="#53bc53"/>
      </g>
      <g id="Group_3846" data-name="Group 3846" transform="translate(10.642 19.577)">
        <path id="Path_4759" data-name="Path 4759" d="M22.07,45.9H32.591v6.463H22.07Z" transform="translate(-22.07 -45.896)" fill="#fbdc43"/>
      </g>
      <g id="Group_3847" data-name="Group 3847" transform="translate(10.657 19.577)">
        <path id="Path_4760" data-name="Path 4760" d="M22.07,45.9h3.747v6.465H22.07Z" transform="translate(-22.07 -45.897)" fill="#eac839"/>
      </g>
      <g id="Group_3848" data-name="Group 3848" transform="translate(0.534 2.44)">
        <path id="Path_4761" data-name="Path 4761" d="M35.883,21.314a4.685,4.685,0,0,1-7.577-.534H19.423v0H10.634a4.687,4.687,0,0,1-7.587.534.219.219,0,0,1,.167-.353H6.147a1.233,1.233,0,0,0,1.078-.627l.81-1.44a1.24,1.24,0,0,0,0-1.217l-.81-1.445a1.238,1.238,0,0,0-1.078-.632H3.219a.213.213,0,0,1-.167-.348,4.685,4.685,0,0,1,7.577.534h8.794v0H28.3a4.687,4.687,0,0,1,7.587-.534.219.219,0,0,1-.167.353H32.788a1.228,1.228,0,0,0-1.078.627l-.81,1.44a1.24,1.24,0,0,0,0,1.217l.81,1.445a1.232,1.232,0,0,0,1.078.632h2.928a.213.213,0,0,1,.166.348Z" transform="translate(-3.001 -13.564)" fill="#d9defb"/>
      </g>
      <g id="Group_3849" data-name="Group 3849" transform="translate(0.535 7.707)">
        <path id="Path_4762" data-name="Path 4762" d="M35.885,25.953a4.691,4.691,0,0,1-7.58-.532H19.424v-.005H10.635a4.689,4.689,0,0,1-7.585.532.217.217,0,0,1,.165-.351H5.561a4.74,4.74,0,0,0,1.091.129,4.684,4.684,0,0,0,3.983-2.217h8.789v.005h8.882a4.692,4.692,0,0,0,5.032,2.093h2.377A.214.214,0,0,1,35.885,25.953Z" transform="translate(-3.003 -23.509)" fill="#c5cced"/>
      </g>
      <g id="Group_3850" data-name="Group 3850" transform="translate(8.915 1.737)">
        <path id="Path_4763" data-name="Path 4763" d="M22.067,13.886v2.876a1.639,1.639,0,0,1-3.279,0V13.886a1.639,1.639,0,0,1,3.279,0Z" transform="translate(-18.788 -12.246)" fill="#ffb6bd"/>
      </g>
      <g id="Group_3851" data-name="Group 3851" transform="translate(8.915 1.735)">
        <path id="Path_4764" data-name="Path 4764" d="M20.786,17.917a1.617,1.617,0,0,0,.4.295,1.657,1.657,0,0,1-.765.186,1.641,1.641,0,0,1-1.638-1.638V13.886a1.64,1.64,0,0,1,1.638-1.643,1.6,1.6,0,0,1,.765.191,1.622,1.622,0,0,0-.884,1.452v2.873A1.632,1.632,0,0,0,20.786,17.917Z" transform="translate(-18.786 -12.242)" fill="#f2a5b1"/>
      </g>
      <g id="Group_3852" data-name="Group 3852" transform="translate(15.441 1.135)">
        <path id="Path_4765" data-name="Path 4765" d="M34.358,12.757v3.478a1.639,1.639,0,1,1-3.278,0V12.757a1.639,1.639,0,1,1,3.278,0Z" transform="translate(-31.079 -11.118)" fill="#ffb6bd"/>
      </g>
      <g id="Group_3853" data-name="Group 3853" transform="translate(15.443 1.136)">
        <path id="Path_4766" data-name="Path 4766" d="M33.069,17.393a1.5,1.5,0,0,0,.4.295,1.638,1.638,0,0,1-2.393-1.452V12.757a1.639,1.639,0,0,1,1.638-1.638,1.6,1.6,0,0,1,.755.186,1.628,1.628,0,0,0-.884,1.452v3.478A1.611,1.611,0,0,0,33.069,17.393Z" transform="translate(-31.079 -11.119)" fill="#f2a5b1"/>
      </g>
      <g id="Group_3854" data-name="Group 3854" transform="translate(18.705 2.038)">
        <path id="Path_4767" data-name="Path 4767" d="M40.5,14.45v2.575a1.639,1.639,0,0,1-3.279,0V14.45a1.639,1.639,0,0,1,3.279,0Z" transform="translate(-37.225 -12.81)" fill="#ffb6bd"/>
      </g>
      <g id="Group_3855" data-name="Group 3855" transform="translate(18.705 2.04)">
        <path id="Path_4768" data-name="Path 4768" d="M39.185,18.184a1.529,1.529,0,0,0,.419.3,1.642,1.642,0,0,1-2.382-1.463V14.452a1.64,1.64,0,0,1,1.643-1.638,1.623,1.623,0,0,1,.739.176,1.649,1.649,0,0,0-.9,1.463v2.574A1.632,1.632,0,0,0,39.185,18.184Z" transform="translate(-37.221 -12.814)" fill="#f2a5b1"/>
      </g>
      <g id="Group_3856" data-name="Group 3856" transform="translate(12.178 0.533)">
        <path id="Path_4769" data-name="Path 4769" d="M28.212,11.629v4.08a1.639,1.639,0,1,1-3.278,0v-4.08a1.639,1.639,0,1,1,3.278,0Z" transform="translate(-24.934 -9.99)" fill="#ffb6bd"/>
      </g>
      <g id="Group_3857" data-name="Group 3857" transform="translate(12.182 0.531)">
        <path id="Path_4770" data-name="Path 4770" d="M27.056,16.864a1.382,1.382,0,0,0,.341.258,1.578,1.578,0,0,1-.822.222,1.641,1.641,0,0,1-1.638-1.638V11.629a1.64,1.64,0,0,1,1.638-1.643,1.578,1.578,0,0,1,.822.222,1.631,1.631,0,0,0-.822,1.421v4.078A1.632,1.632,0,0,0,27.056,16.864Z" transform="translate(-24.937 -9.985)" fill="#f2a5b1"/>
      </g>
      <g id="Group_3858" data-name="Group 3858" transform="translate(17.058 5.849)">
        <path id="Path_4771" data-name="Path 4771" d="M39.462,24.059H37.175a3.023,3.023,0,0,1-3.023-3.023v-.125a.9.9,0,0,1,.9-.9H41.4a.9.9,0,0,1,.9.9V23a5.037,5.037,0,0,1-1.005,3.28" transform="translate(-34.152 -20.014)" fill="#ffb6bd"/>
      </g>
      <g id="Group_3859" data-name="Group 3859" transform="translate(17.066 5.851)">
        <path id="Path_4772" data-name="Path 4772" d="M39.463,24.058H37.173a3.024,3.024,0,0,1-3.023-3.023v-.124a.9.9,0,0,1,.9-.9H37.39a.9.9,0,0,0-.9.9v.124a3.023,3.023,0,0,0,2.972,3.023Z" transform="translate(-34.15 -20.012)" fill="#f2a5b1"/>
      </g>
      <path id="Path_4773" data-name="Path 4773" d="M35.927,18.691a.736.736,0,0,0-.675-.43H32.325a.7.7,0,0,1-.616-.361l-.813-1.44a.7.7,0,0,1,0-.691l.813-1.434a.7.7,0,0,1,.616-.351h2.932a.744.744,0,0,0,.669-.425.763.763,0,0,0-.1-.8,5.256,5.256,0,0,0-4.011-1.87A5.2,5.2,0,0,0,27.549,13.1H24.511V12.65a2.169,2.169,0,0,0-2.168-2.162,2.121,2.121,0,0,0-1.27.425A2.162,2.162,0,0,0,19.081,9.59a2.135,2.135,0,0,0-1.387.515,2.146,2.146,0,0,0-3.947.446,2.165,2.165,0,0,0-3.363,1.8v.669a5.218,5.218,0,0,0-8.213-.266.733.733,0,0,0-.1.786.749.749,0,0,0,.68.43H5.678a.705.705,0,0,1,.616.356L7.1,15.774a.686.686,0,0,1,0,.685l-.807,1.434a.7.7,0,0,1-.616.356H2.746a.751.751,0,0,0-.574,1.227,5.222,5.222,0,0,0,8.091-.112A15.272,15.272,0,0,0,11.708,24.5a3.045,3.045,0,0,1,.255.738,1.966,1.966,0,0,0,.17,3.857v5.934a.529.529,0,0,0,.531.531H23.14a.533.533,0,0,0,.531-.531V29.1a1.965,1.965,0,0,0,.064-3.878,3.2,3.2,0,0,1,1.3-2.4,4.936,4.936,0,0,0,1.562-1.4,4.32,4.32,0,0,0,1.015-2.215,5.227,5.227,0,0,0,8.213.266.743.743,0,0,0,.1-.786ZM21.243,12.65a1.1,1.1,0,0,1,2.2,0v1.663h-2.2Zm-3.262-.9a1.1,1.1,0,1,1,2.2,0v2.561h-.207a1.428,1.428,0,0,0-1.424,1.429v.122q0,.159.016.319a1.1,1.1,0,0,1-.584-.967Zm-3.267-.6a1.1,1.1,0,0,1,2.2,0v4.064a1.1,1.1,0,0,1-2.2,0Zm-3.267,1.2a1.1,1.1,0,0,1,2.2,0v2.863a1.1,1.1,0,0,1-2.2,0Zm-1.28,5.716a.531.531,0,0,0-.452.25,4.174,4.174,0,0,1-6.21.993H5.678a1.776,1.776,0,0,0,1.541-.892l.813-1.44a1.751,1.751,0,0,0-.005-1.732l-.807-1.44a1.788,1.788,0,0,0-1.541-.9H3.521a4.158,4.158,0,0,1,6.189,1,.531.531,0,0,0,.452.25h.223v1.057a2.156,2.156,0,0,0,3.8,1.4,2.136,2.136,0,0,0,3.267,0,2.146,2.146,0,0,0,1.434.744,3.622,3.622,0,0,0,.441.712ZM22.609,34.5H13.2V29.129h9.414Zm1.679-7.347a.913.913,0,0,1-.908.914H12.425a.911.911,0,0,1,0-1.822H23.379A.911.911,0,0,1,24.288,27.153Zm1.53-6.444a.262.262,0,0,0-.053.08c-.005-.005-.005-.005-.005-.011a3.906,3.906,0,0,1-1.238,1.116,4.183,4.183,0,0,0-1.854,3.288H13.036a4.036,4.036,0,0,0-.382-1.163A14.186,14.186,0,0,1,11.3,19.131l8.957.005a3.336,3.336,0,0,0-.792,3.527.521.521,0,0,0,.68.313.53.53,0,0,0,.319-.68,2.276,2.276,0,0,1,1.312-2.906c.1.005.207.016.313.016h2.274a.531.531,0,1,0,0-1.062H22.093a2.484,2.484,0,0,1-2.481-2.481v-.122a.363.363,0,0,1,.361-.367H26.3a.363.363,0,0,1,.361.367v2.1a4.488,4.488,0,0,1-.845,2.869Zm6-.43a4.121,4.121,0,0,1-3.527-1.955.544.544,0,0,0-.452-.25H27.73c0-.149-.005-.244-.005-.26V15.742A1.428,1.428,0,0,0,26.3,14.313h-1.79v-.149h3.326a.544.544,0,0,0,.452-.25,4.158,4.158,0,0,1,6.2-.993H32.325a1.757,1.757,0,0,0-1.541.892l-.813,1.434a1.738,1.738,0,0,0,0,1.732l.807,1.44a1.771,1.771,0,0,0,1.546.9h2.157a4.158,4.158,0,0,1-2.661.956Z" transform="translate(-2 -8.99)" fill="#060606"/>
    </g>
  </g>
</svg>
