<svg xmlns="http://www.w3.org/2000/svg" width="231.282" height="222.681" viewBox="0 0 231.282 222.681">
  <g id="Group_4" data-name="Group 4" transform="translate(-200.404 -504.183)">
    <g id="Group_2" data-name="Group 2" transform="translate(266.969 504.183)">
      <g id="Group_1" data-name="Group 1">
        <path id="Path_1" data-name="Path 1" d="M263.728,651.439c-9.292.126-14.66-5.1-14.684-14.246q-.132-49.067-.066-98.137c0-9.933.189-19.869.031-29.8-.058-3.711,1.016-5.1,4.946-5.073,25.348.153,50.7.029,76.044.108,8.331.027,15.409,6.431,15.684,14.523.33,9.751.014,19.522.133,29.281.049,3.95-2.285,4.375-5.348,4.365-12.331-.04-24.666.143-36.993-.082-4.621-.085-6.288,1.331-6.094,6.14.514,12.808-1.8,11.147,11.138,11.293,5.48.062,10.964.126,16.44-.026,3.177-.088,4.654.821,4.591,4.333-.18,10.1.052,20.212-.106,30.313-.111,7.091-8.354,15.063-15.409,15.185-3.766.066-7.55.223-11.3-.038-3.94-.275-5.487,1.014-5.338,5.169.285,7.869,0,15.756.114,23.632.041,2.963-.82,4.383-4.081,4.3-14.372-.345-11.611,1.968-11.817-11.382-.169-10.96.071-21.925-.085-32.884-.052-3.558,1.2-4.864,4.762-4.782,7.532.173,15.072-.057,22.606.074,3.547.062,4.828-1.349,4.74-4.879-.36-14.447,2.084-12.355-11.916-12.553-5.309-.075-10.624-.148-15.926.029-3.593.119-5.247-.9-5.184-4.9q.3-19.776.007-39.561c-.051-3.729,1.429-4.658,4.858-4.624,13.187.133,26.377-.075,39.562.126,3.988.062,5.432-1.124,5.3-5.228-.47-14.787,2.294-12.584-12.793-12.719q-21.579-.193-43.16.014c-10.293.114-10.067-2.2-10.189,10.363-.3,30.656-.34,61.313-.462,91.97C263.7,631.647,263.728,641.55,263.728,651.439Z" transform="translate(-248.975 -504.183)" fill="#dc9928"/>
      </g>
    </g>
    <g id="Group_3" data-name="Group 3" transform="translate(200.404 672.943)">
      <path id="Path_2" data-name="Path 2" d="M200.4,679.926v-51.5h32.868v9.088H210.855v15.145h18.326v9.089H210.855v18.175Z" transform="translate(-200.404 -626.914)" fill="#fff"/>
      <path id="Path_3" data-name="Path 3" d="M229.083,637.624v-10.3h10.148v10.3Zm0,42.712V642.47h10.148v37.866Z" transform="translate(-189.78 -627.324)" fill="#fff"/>
      <path id="Path_4" data-name="Path 4" d="M240.687,638.376h10.831l6.059,11.738,6.134-11.738H274.54l-10.754,18.553,10.754,19.313H263.711l-6.134-11.587-6.059,11.587H240.687l10.376-19.008Z" transform="translate(-185.481 -623.23)" fill="#fff"/>
      <path id="Path_5" data-name="Path 5" d="M270.2,679.926v-51.5h17.8l9.088,37.562,9.088-37.562h17.8v51.5h-10.45V640.091H312.38l-10.073,37.563H291.856l-10.073-37.563h-1.135v39.835Z" transform="translate(-174.548 -626.914)" fill="#fff"/>
      <path id="Path_6" data-name="Path 6" d="M346.626,650.435v15.752a6.066,6.066,0,0,0,.606,2.538,2.813,2.813,0,0,0,1.894,1.022l-.3,7.648a28.758,28.758,0,0,1-6.173-.53,13.885,13.885,0,0,1-4.657-2.121A25.223,25.223,0,0,1,326.86,677.4q-11.738,0-11.738-12.42,0-6.058,3.256-8.6t10-2.992l8.1-.606v-2.348a4.008,4.008,0,0,0-1.061-3.218,5.368,5.368,0,0,0-3.408-.872l-14.238.607-.3-7.044a58.967,58.967,0,0,1,15.412-2.2q7.306,0,10.527,3.029T346.626,650.435Zm-17.039,10q-4.243.38-4.242,4.543t3.711,4.166a24.475,24.475,0,0,0,6.285-.91l1.137-.3v-8.1Z" transform="translate(-157.905 -623.475)" fill="#fff"/>
      <path id="Path_7" data-name="Path 7" d="M355.331,676.487H345.183V638.622h10.073v2.12a18.971,18.971,0,0,1,9.466-3.029q7.573,0,10.451,4.468t2.878,13.783v20.524H367.9v-20.22q0-4.845-1.136-7.158t-4.543-2.309a17.182,17.182,0,0,0-5.983,1.059l-.909.3Z" transform="translate(-146.769 -623.475)" fill="#fff"/>
    </g>
  </g>
</svg>
