<svg xmlns="http://www.w3.org/2000/svg" width="22.272" height="26.727" viewBox="0 0 22.272 26.727">
  <path id="assept-document" d="M21.989,6.165,18.107,2.283A7.744,7.744,0,0,0,12.6,0H7.568A5.575,5.575,0,0,0,2,5.568V21.159a5.575,5.575,0,0,0,5.568,5.568H18.7a5.575,5.575,0,0,0,5.568-5.568V11.676a7.744,7.744,0,0,0-2.283-5.511ZM20.415,7.74a5.588,5.588,0,0,1,.87,1.169H16.477A1.114,1.114,0,0,1,15.363,7.8V2.988a5.588,5.588,0,0,1,1.169.87Zm1.63,13.419A3.341,3.341,0,0,1,18.7,24.5H7.568a3.341,3.341,0,0,1-3.341-3.341V5.568A3.341,3.341,0,0,1,7.568,2.227H12.6c.184,0,.36.036.54.052V7.8a3.341,3.341,0,0,0,3.341,3.341h5.516c.017.18.052.356.052.54ZM18.4,14.823a1.114,1.114,0,0,1-.039,1.574l-4,3.8a3.341,3.341,0,0,1-4.706-.019L7.94,18.65a1.114,1.114,0,1,1,1.483-1.664l1.765,1.575a1.114,1.114,0,0,0,1.621.045l4.009-3.821a1.114,1.114,0,0,1,1.578.039Z" transform="translate(-2 0)" fill="#dc9928"/>
</svg>
