<svg xmlns="http://www.w3.org/2000/svg" width="22.272" height="26.727" viewBox="0 0 22.272 26.727">
  <path id="add-document" d="M17.591,17.818a1.114,1.114,0,0,1-1.114,1.114H14.25v2.227a1.114,1.114,0,1,1-2.227,0V18.931H9.8a1.114,1.114,0,1,1,0-2.227h2.227V14.477a1.114,1.114,0,1,1,2.227,0V16.7h2.227A1.114,1.114,0,0,1,17.591,17.818Zm6.682-6.142v9.482A5.575,5.575,0,0,1,18.7,26.727H7.568A5.575,5.575,0,0,1,2,21.159V5.568A5.575,5.575,0,0,1,7.568,0H12.6a7.749,7.749,0,0,1,5.512,2.283l3.88,3.882A7.741,7.741,0,0,1,24.272,11.676ZM16.534,3.858a5.579,5.579,0,0,0-1.17-.869V7.8a1.114,1.114,0,0,0,1.114,1.114h4.806a5.549,5.549,0,0,0-.87-1.169Zm5.511,7.819c0-.184-.036-.36-.052-.54H16.477A3.341,3.341,0,0,1,13.136,7.8V2.28c-.18-.017-.357-.052-.54-.052H7.568A3.341,3.341,0,0,0,4.227,5.568V21.159A3.341,3.341,0,0,0,7.568,24.5H18.7a3.341,3.341,0,0,0,3.341-3.341Z" transform="translate(-2 0)" fill="#dc9928"/>
</svg>
