<svg xmlns="http://www.w3.org/2000/svg" width="24" height="24.001" viewBox="0 0 24 24.001">
  <path id="icon_sensor-alert" d="M22,24H19a1,1,0,0,1,0-2h3L16.007,11.995,10,22.01,13,22a1,1,0,0,1,0,2H10a2,2,0,0,1-1.728-3.008l6-10.025a2,2,0,0,1,3.451.01l5.992,10.006A2,2,0,0,1,22,24Zm-5-4V17a1,1,0,0,0-2,0v3a1,1,0,0,0,2,0ZM6,23a1,1,0,0,0-1-1,3,3,0,0,1-3-3V5A3,3,0,0,1,5,2H19a3,3,0,0,1,3,3v9a1,1,0,0,0,2,0V5a5.006,5.006,0,0,0-5-5H5A5.006,5.006,0,0,0,0,5V19a5.006,5.006,0,0,0,5,5A1,1,0,0,0,6,23ZM5,4A1,1,0,1,0,6,5,1,1,0,0,0,5,4ZM9,4a1,1,0,1,0,1,1A1,1,0,0,0,9,4Zm7,18a1,1,0,1,0,1,1A1,1,0,0,0,16,22Z" fill="#f80000"/>
</svg>
