<svg xmlns="http://www.w3.org/2000/svg" width="15" height="15" viewBox="0 0 15 15">
  <g id="arrow-green" transform="translate(-0.424 0.172)">
    <circle id="Ellipse_277" data-name="Ellipse 277" cx="7.5" cy="7.5" r="7.5" transform="translate(0.424 -0.172)" fill="#2bc48a"/>
    <g id="arrow" transform="translate(12.054 2.158) rotate(90)">
      <g id="Group_3758" data-name="Group 3758" transform="translate(0 0)">
        <path id="Path_4377" data-name="Path 4377" d="M9.929,3.788a.755.755,0,0,0-.131-.01H2.345L2.508,3.7a1.512,1.512,0,0,0,.427-.3l2.09-2.09a.782.782,0,0,0,.11-1A.756.756,0,0,0,4,.211L.222,3.99a.756.756,0,0,0,0,1.069h0L4,8.839a.756.756,0,0,0,1.134-.076.782.782,0,0,0-.11-1L2.939,5.668a1.512,1.512,0,0,0-.378-.276l-.227-.1H9.756a.782.782,0,0,0,.8-.635A.756.756,0,0,0,9.929,3.788Z" fill="#fff"/>
      </g>
    </g>
  </g>
</svg>
