<svg xmlns="http://www.w3.org/2000/svg" width="13.101" height="13.119" viewBox="0 0 13.101 13.119">
  <path id="input--call" d="M9.713,13.093C5.274,13.243-2.724,5.31.989,1.008L1.617.462A1.682,1.682,0,0,1,3.979.486a.546.546,0,0,1,.047.055l.983,1.277A1.7,1.7,0,0,1,5,4.155l-.632.795A6.983,6.983,0,0,0,8.155,8.743l.8-.636a1.731,1.731,0,0,1,2.338,0l1.278.983a.615.615,0,0,1,.055.046,1.7,1.7,0,0,1,0,2.39l-.5.573A3.36,3.36,0,0,1,9.713,13.093ZM2.784,1.081a.6.6,0,0,0-.423.175L1.733,1.8c-3.083,3.706,6.351,12.614,9.6,9.549l.5-.574a.6.6,0,0,0,.046-.851L10.6,8.949a.443.443,0,0,1-.055-.048.613.613,0,0,0-.845,0,.551.551,0,0,1-.046.041L8.587,9.8a.546.546,0,0,1-.535.083A8.2,8.2,0,0,1,3.236,5.067a.546.546,0,0,1,.08-.546l.848-1.068a.463.463,0,0,1,.041-.046.6.6,0,0,0,0-.846.473.473,0,0,1-.047-.055L3.185,1.238a.6.6,0,0,0-.4-.154ZM9.317,8.516Zm3.018-1.661A4.374,4.374,0,0,0,6.254.775a.546.546,0,1,0,.625.9A3.282,3.282,0,0,1,11.44,6.231a.546.546,0,1,0,.9.624ZM10.229,5.837a.546.546,0,0,0,0-.772L9.3,4.133V2.719a.546.546,0,1,0-1.092,0V4.357a.546.546,0,0,0,.16.386L9.457,5.835a.546.546,0,0,0,.772,0Z" transform="translate(-0.033 0.024)" fill="#828282"/>
</svg>
