<svg xmlns="http://www.w3.org/2000/svg" width="13.101" height="13.101" viewBox="0 0 13.101 13.101">
  <path id="calendar-clock" d="M9.28,5.48A3.81,3.81,0,1,0,13.1,9.28,3.826,3.826,0,0,0,9.28,5.48Zm0,6.529A2.719,2.719,0,1,1,12.009,9.28,2.722,2.722,0,0,1,9.28,12.009Zm.932-2.569a.546.546,0,1,1-.772.772l-.546-.546a.545.545,0,0,1-.16-.386V8.188a.546.546,0,0,1,1.092,0v.866ZM13.1,3.821V4.913a.546.546,0,0,1-1.092,0V3.821a1.64,1.64,0,0,0-1.638-1.638H2.729A1.64,1.64,0,0,0,1.092,3.821v.546H6A.546.546,0,1,1,6,5.459H1.092v4.913a1.64,1.64,0,0,0,1.638,1.638H4.913a.546.546,0,0,1,0,1.092H2.729A2.732,2.732,0,0,1,0,10.371V3.821A2.732,2.732,0,0,1,2.729,1.092h.546V.546a.546.546,0,1,1,1.092,0v.546H8.734V.546a.546.546,0,0,1,1.092,0v.546h.546A2.732,2.732,0,0,1,13.1,3.821Z" fill="#7b7b7b"/>
</svg>
