<svg id="_022---Cross-File" data-name="022---Cross-File" xmlns="http://www.w3.org/2000/svg" width="69.902" height="76.285" viewBox="0 0 69.902 76.285">
  <path id="Shape" d="M69.547,6.355A6.362,6.362,0,0,0,63.192,0H12.355A6.362,6.362,0,0,0,6,6.355V30.5a1.271,1.271,0,1,0,2.542,0V6.355a3.813,3.813,0,0,1,3.813-3.813H63.192A3.813,3.813,0,0,1,67,6.355V55.921h-8.9a6.362,6.362,0,0,0-6.355,6.355v8.9H46.67a1.271,1.271,0,1,0,0,2.542h6.355a1.271,1.271,0,0,0,.9-.372L69.174,58.091a1.271,1.271,0,0,0,.372-.9ZM58.108,58.463h7.1L54.3,69.375v-7.1A3.813,3.813,0,0,1,58.108,58.463Z" transform="translate(0.356)" fill="#fff"/>
  <path id="Shape-2" data-name="Shape" d="M15.813,6H13.271a1.271,1.271,0,1,0,0,2.542h2.542a1.271,1.271,0,1,0,0-2.542Z" transform="translate(1.981 1.626)" fill="#fff"/>
  <path id="Shape-3" data-name="Shape" d="M57.4,6H19.271a1.271,1.271,0,1,0,0,2.542H57.4A1.271,1.271,0,1,0,57.4,6Z" transform="translate(3.607 1.626)" fill="#fff"/>
  <path id="Shape-4" data-name="Shape" d="M15.813,12H13.271a1.271,1.271,0,0,0,0,2.542h2.542a1.271,1.271,0,0,0,0-2.542Z" transform="translate(1.981 3.251)" fill="#fff"/>
  <path id="Shape-5" data-name="Shape" d="M19.271,14.542H48.5A1.271,1.271,0,0,0,48.5,12H19.271a1.271,1.271,0,1,0,0,2.542Z" transform="translate(3.607 3.251)" fill="#fff"/>
  <path id="Shape-6" data-name="Shape" d="M15.813,18H13.271a1.271,1.271,0,0,0,0,2.542h2.542a1.271,1.271,0,0,0,0-2.542Z" transform="translate(1.981 4.877)" fill="#fff"/>
  <path id="Shape-7" data-name="Shape" d="M19.271,20.542H39.606a1.271,1.271,0,0,0,0-2.542H19.271a1.271,1.271,0,1,0,0,2.542Z" transform="translate(3.607 4.877)" fill="#fff"/>
  <path id="Shape-8" data-name="Shape" d="M52.542,21.271a1.271,1.271,0,1,0-2.542,0V39.064a1.271,1.271,0,0,0,2.542,0Z" transform="translate(12.277 5.419)" fill="#fff"/>
  <path id="Shape-9" data-name="Shape" d="M51.271,38A1.271,1.271,0,0,0,50,39.271v2.542a1.271,1.271,0,1,0,2.542,0V39.271A1.271,1.271,0,0,0,51.271,38Z" transform="translate(12.277 10.296)" fill="#fff"/>
  <path id="Shape-10" data-name="Shape" d="M1,63.482a5.084,5.084,0,0,0,8.6,3.771L21.971,55.383,34.336,67.253a5.084,5.084,0,1,0,7.042-7.333L29.312,48.335,41.378,36.751A5.084,5.084,0,0,0,37.962,28a5.029,5.029,0,0,0-3.625,1.417L21.971,41.288,9.606,29.417a5.084,5.084,0,1,0-7.042,7.333L14.63,48.335,2.563,59.92A5.041,5.041,0,0,0,1,63.482Zm3.322-1.73,13.022-12.5a1.271,1.271,0,0,0,0-1.833L4.324,34.918a2.542,2.542,0,0,1,1.708-4.376,2.49,2.49,0,0,1,1.812.708L21.091,43.967a1.271,1.271,0,0,0,1.759,0L36.1,31.25a2.458,2.458,0,0,1,1.812-.708,2.542,2.542,0,0,1,1.708,4.376L26.6,47.419a1.271,1.271,0,0,0,0,1.833l13.021,12.5a2.542,2.542,0,0,1,.072,3.594,2.6,2.6,0,0,1-3.593.074L22.85,52.711a1.271,1.271,0,0,0-1.759,0L7.844,65.42a2.6,2.6,0,0,1-3.594-.074,2.542,2.542,0,0,1,.074-3.594Z" transform="translate(-0.999 7.586)" fill="#fff"/>
</svg>
