<svg xmlns="http://www.w3.org/2000/svg" width="20" height="23.999" viewBox="0 0 20 23.999">
  <path id="icon_doc" d="M19.95,5.536,16.465,2.051A6.954,6.954,0,0,0,11.515,0H7A5,5,0,0,0,2,5V19a5.006,5.006,0,0,0,5,5H17a5.006,5.006,0,0,0,5-5V10.485a6.956,6.956,0,0,0-2.05-4.95ZM18.536,6.95A5.031,5.031,0,0,1,19.341,8H15a1,1,0,0,1-1-1V2.659a5.005,5.005,0,0,1,1.05.805l3.485,3.485ZM20,19a3,3,0,0,1-3,3H7a3,3,0,0,1-3-3V5A3,3,0,0,1,7,2h4.515c.163,0,.325.008.485.023V7a3,3,0,0,0,3,3h4.977c.015.16.023.322.023.485V19Zm-4.5-6h-7A2.5,2.5,0,0,0,6,15.5v2A2.5,2.5,0,0,0,8.5,20h7A2.5,2.5,0,0,0,18,17.5v-2A2.5,2.5,0,0,0,15.5,13Zm.5,4.5a.5.5,0,0,1-.5.5h-7a.5.5,0,0,1-.5-.5v-2a.5.5,0,0,1,.5-.5h7a.5.5,0,0,1,.5.5ZM6,10A1,1,0,0,1,7,9H9a1,1,0,0,1,0,2H7A1,1,0,0,1,6,10ZM6,6A1,1,0,0,1,7,5H9A1,1,0,0,1,9,7H7A1,1,0,0,1,6,6Z" transform="translate(-2 -0.001)" fill="#7b7b7b"/>
</svg>
