<svg xmlns="http://www.w3.org/2000/svg" width="35" height="22.758" viewBox="0 0 35 22.758">
  <g id="dollar" transform="translate(0 -89.539)">
    <path id="Path_4204" data-name="Path 4204" d="M36.8,169.882H8.009a.509.509,0,0,1-.509-.509V152.408a.509.509,0,0,1,.509-.509H36.8a.509.509,0,0,1,.509.509v16.964A.509.509,0,0,1,36.8,169.882Z" transform="translate(-6.987 -58.097)" fill="#5cc45c"/>
    <path id="Path_4205" data-name="Path 4205" d="M36.8,151.9H8.009a.509.509,0,0,0-.509.509v16.525H37.309V152.408A.509.509,0,0,0,36.8,151.9Z" transform="translate(-6.987 -58.097)" fill="#4ead4e"/>
    <path id="Path_4206" data-name="Path 4206" d="M66.267,143.451H37.476a.509.509,0,0,1-.509-.509V125.977a.509.509,0,0,1,.509-.509H66.267a.509.509,0,0,1,.509.509v16.964A.509.509,0,0,1,66.267,143.451Z" transform="translate(-34.44 -33.473)" fill="#5cc45c"/>
    <path id="Path_4207" data-name="Path 4207" d="M66.267,125.468H37.476a.509.509,0,0,0-.509.509v16.448H66.776V125.977A.509.509,0,0,0,66.267,125.468Z" transform="translate(-34.44 -33.473)" fill="#4ead4e"/>
    <path id="Path_4208" data-name="Path 4208" d="M97.73,115.022H68.939a.509.509,0,0,1-.509-.509V97.548a.509.509,0,0,1,.509-.509H97.73a.509.509,0,0,1,.509.509v16.964A.509.509,0,0,1,97.73,115.022Z" transform="translate(-63.752 -6.987)" fill="#5cc45c"/>
    <path id="Path_4209" data-name="Path 4209" d="M453.809,97.039h-3.173v17.983h3.173a.509.509,0,0,0,.509-.509V97.548A.509.509,0,0,0,453.809,97.039Z" transform="translate(-419.831 -6.987)" fill="#4ead4e"/>
    <path id="Path_4210" data-name="Path 4210" d="M96.053,136.88a2.314,2.314,0,0,0-2.07-2.07.121.121,0,0,1-.108-.121v-9.906a.121.121,0,0,1,.108-.121,2.314,2.314,0,0,0,2.07-2.07.121.121,0,0,1,.121-.108h21.732a.121.121,0,0,1,.121.108,2.314,2.314,0,0,0,2.07,2.07.121.121,0,0,1,.108.121v9.906a.121.121,0,0,1-.108.121,2.314,2.314,0,0,0-2.07,2.07.121.121,0,0,1-.121.108H96.174A.121.121,0,0,1,96.053,136.88Z" transform="translate(-87.458 -30.693)" fill="#a0e557"/>
    <path id="Path_4211" data-name="Path 4211" d="M427.707,124.661a2.314,2.314,0,0,1-2.07-2.07.121.121,0,0,0-.121-.108h-1.461v14.5h1.461a.121.121,0,0,0,.121-.108,2.314,2.314,0,0,1,2.07-2.07.121.121,0,0,0,.108-.121v-9.906A.121.121,0,0,0,427.707,124.661Z" transform="translate(-395.067 -30.692)" fill="#93cc4a"/>
    <circle id="Ellipse_18" data-name="Ellipse 18" cx="4.919" cy="4.919" r="4.919" transform="translate(14.663 94.124)" fill="#f3e8d7"/>
    <path id="Path_4212" data-name="Path 4212" d="M260.845,156.6a4.9,4.9,0,0,0-1.88.373,4.92,4.92,0,0,1,0,9.093,4.92,4.92,0,1,0,1.88-9.466Z" transform="translate(-241.262 -62.481)" fill="#ddd1c3"/>
    <path id="Path_4213" data-name="Path 4213" d="M262.341,183.008c-.972-.016-1.631-.541-1.631-.925,0-.188.165-.447.361-.447.259,0,.471.549,1.27.612V180.4c-.706-.251-1.49-.533-1.49-1.537a1.456,1.456,0,0,1,1.49-1.459v-.227a.207.207,0,0,1,.227-.18c.118,0,.235.086.235.18v.212c.533.016,1.286.18,1.286.565,0,.149-.11.447-.345.447-.188,0-.392-.251-.941-.29v1.592c.682.251,1.427.6,1.427,1.663a1.519,1.519,0,0,1-1.427,1.616v.267c0,.094-.118.18-.235.18a.207.207,0,0,1-.227-.18Zm.047-3.451V178.13c-.439.055-.753.251-.753.659C261.635,179.236,261.973,179.4,262.388,179.558Zm.369,1.02v1.655a.746.746,0,0,0,.69-.776A.917.917,0,0,0,262.757,180.577Z" transform="translate(-242.888 -81.483)"/>
    <path id="Path_4214" data-name="Path 4214" d="M33.978,89.539H5.187a1.023,1.023,0,0,0-1.022,1.022v.921H3.036A1.023,1.023,0,0,0,2.014,92.5v.785H1.022A1.023,1.023,0,0,0,0,94.311v16.964A1.023,1.023,0,0,0,1.022,112.3H29.813a1.023,1.023,0,0,0,1.022-1.022v-.785h.993a1.023,1.023,0,0,0,1.022-1.022v-.922h1.129A1.023,1.023,0,0,0,35,107.525V90.561A1.023,1.023,0,0,0,33.978,89.539ZM1.025,111.276l0-16.961h.993v15.154a1.023,1.023,0,0,0,1.022,1.022H29.811l0,.781Zm2.014-1.807,0-16.961H4.165v15.018a1.023,1.023,0,0,0,1.022,1.022H31.825l0,.918H30.318l-27.279,0m2.151-1.943,0-16.961,28.788,0,0,16.961h0l-28.788,0"/>
    <path id="Path_4215" data-name="Path 4215" d="M312.182,117.164a1.8,1.8,0,0,1-1.61-1.61.631.631,0,0,0-.631-.571H300.52a.513.513,0,0,0,0,1.025h9.089a2.832,2.832,0,0,0,2.118,2.118v9.243a2.832,2.832,0,0,0-2.118,2.118h-9.1a.513.513,0,0,0,0,1.025h9.428a.631.631,0,0,0,.631-.571,1.8,1.8,0,0,1,1.61-1.61.631.631,0,0,0,.571-.631v-9.906A.631.631,0,0,0,312.182,117.164Z" transform="translate(-279.492 -23.705)"/>
    <path id="Path_4216" data-name="Path 4216" d="M99.11,129.487H89.518a2.832,2.832,0,0,0-2.118-2.118v-9.243a2.832,2.832,0,0,0,2.118-2.118h9.595a.513.513,0,0,0,0-1.025H89.187a.631.631,0,0,0-.631.571,1.8,1.8,0,0,1-1.61,1.61.631.631,0,0,0-.571.631V127.7a.631.631,0,0,0,.571.631,1.8,1.8,0,0,1,1.61,1.61.631.631,0,0,0,.631.571H99.11a.513.513,0,0,0,0-1.025Z" transform="translate(-80.47 -23.705)"/>
    <path id="Path_4217" data-name="Path 4217" d="M217.864,154.537a5.432,5.432,0,1,0-5.432,5.432A5.438,5.438,0,0,0,217.864,154.537Zm-5.432,4.407a4.407,4.407,0,1,1,4.407-4.407A4.412,4.412,0,0,1,212.432,158.944Z" transform="translate(-192.85 -55.494)"/>
  </g>
</svg>
