<svg xmlns="http://www.w3.org/2000/svg" width="34" height="34" viewBox="0 0 34 34">
  <path id="icon_filedoc" d="M26.917,5.667H21.25V4.25a4.25,4.25,0,0,0-8.5,0V5.667H7.083A7.092,7.092,0,0,0,0,12.75V26.917A7.092,7.092,0,0,0,7.083,34H26.917A7.092,7.092,0,0,0,34,26.917V12.75a7.092,7.092,0,0,0-7.083-7.083ZM15.583,4.25a1.417,1.417,0,1,1,2.833,0V7.083a1.417,1.417,0,1,1-2.833,0ZM31.167,26.917a4.25,4.25,0,0,1-4.25,4.25H7.083a4.25,4.25,0,0,1-4.25-4.25V12.75A4.25,4.25,0,0,1,7.083,8.5h5.927a4.225,4.225,0,0,0,7.979,0h5.927a4.25,4.25,0,0,1,4.25,4.25Zm-17-12.75H7.083a1.417,1.417,0,0,0-1.417,1.417V26.917a1.417,1.417,0,0,0,1.417,1.417h7.083a1.417,1.417,0,0,0,1.417-1.417V15.583A1.417,1.417,0,0,0,14.167,14.167ZM12.75,25.5H8.5V17h4.25Zm15.583-4.25a1.417,1.417,0,0,1-1.417,1.417H19.833a1.417,1.417,0,0,1,0-2.833h7.083A1.417,1.417,0,0,1,28.333,21.25Zm0-5.667A1.417,1.417,0,0,1,26.917,17H19.833a1.417,1.417,0,0,1,0-2.833h7.083A1.417,1.417,0,0,1,28.333,15.583ZM25.5,26.917a1.417,1.417,0,0,1-1.417,1.417h-4.25a1.417,1.417,0,0,1,0-2.833h4.25A1.417,1.417,0,0,1,25.5,26.917Z" fill="#dc9928"/>
</svg>
