<svg xmlns="http://www.w3.org/2000/svg" width="20" height="24" viewBox="0 0 20 24">
  <path id="icon_file-pdf" d="M19.95,5.54,16.46,2.05A6.959,6.959,0,0,0,11.51,0H7A5,5,0,0,0,2,5V19a5,5,0,0,0,5,5H17a5,5,0,0,0,5-5V10.49A6.959,6.959,0,0,0,19.95,5.54ZM18.54,6.95A5.082,5.082,0,0,1,19.35,8H15.01a1,1,0,0,1-1-1V2.66a5.082,5.082,0,0,1,1.05.81l3.49,3.49ZM20,19a3.009,3.009,0,0,1-3,3H7a3.009,3.009,0,0,1-3-3V5A3.009,3.009,0,0,1,7,2h4.51a4.015,4.015,0,0,1,.49.02V7a3.009,3.009,0,0,0,3,3h4.98a3.934,3.934,0,0,1,.02.49ZM7.09,13H6a1,1,0,0,0-1,1v4.44a.617.617,0,0,0,.62.62.623.623,0,0,0,.62-.62V17.22h.84a2.11,2.11,0,1,0,0-4.22Zm0,2.97H6.26V14.25H7.1a.861.861,0,1,1,0,1.72Zm11.93-2.34a.617.617,0,0,1-.62.62H16.71v1.14h1.24a.617.617,0,0,1,.62.62.623.623,0,0,1-.62.62H16.71v1.8a.617.617,0,0,1-.62.62.623.623,0,0,1-.62-.62V13.62a.617.617,0,0,1,.62-.62H18.4a.617.617,0,0,1,.62.62Zm-6.93-.62H11a1,1,0,0,0-1,1v4.44a.568.568,0,0,0,.62.56h1.46a2.13,2.13,0,0,0,2.14-2.11V15.12a2.13,2.13,0,0,0-2.14-2.11Zm.89,3.89a.886.886,0,0,1-.89.86h-.83v-3.5h.84a.886.886,0,0,1,.89.86V16.9Z" transform="translate(-2)" fill="#fff"/>
</svg>
