<svg xmlns="http://www.w3.org/2000/svg" width="119" height="119" viewBox="0 0 119 119">
  <g id="icon-03" transform="translate(-3 -3)">
    <path id="Path_3564" data-name="Path 3564" d="M3,26H122V50.621H3Z" transform="translate(0 24.19)" fill="#365e7d"/>
    <path id="Path_3565" data-name="Path 3565" d="M9,23H19.259V59.931H9Z" transform="translate(6.31 21.034)" fill="#91d1f5"/>
    <path id="Path_3566" data-name="Path 3566" d="M50,23H60.259V59.931H50Z" transform="translate(49.431 21.034)" fill="#91d1f5"/>
    <path id="Path_3567" data-name="Path 3567" d="M26,19H50.621V31.31A12.31,12.31,0,1,1,26,31.31Z" transform="translate(24.19 16.828)" fill="#787680"/>
    <path id="Path_3568" data-name="Path 3568" d="M24,14H56.828V24.259H24Z" transform="translate(22.086 11.569)" fill="#4a80aa"/>
    <path id="Path_3569" data-name="Path 3569" d="M21,3H66.138V13.259H21Z" transform="translate(18.931 0)" fill="#91d1f5"/>
    <path id="Path_3570" data-name="Path 3570" d="M30,8h8.207V20.31H30Z" transform="translate(28.397 5.259)" fill="#787680"/>
    <g id="Group_82" data-name="Group 82" transform="translate(13.259 85.069)">
      <path id="Path_3571" data-name="Path 3571" d="M23.207,53.259a4.1,4.1,0,0,1-8.207,0C15,51,19.1,43,19.1,43S23.207,51,23.207,53.259Z" transform="translate(-0.638 -43)" fill="#2488ff"/>
      <path id="Path_3572" data-name="Path 3572" d="M16.207,58.259a4.1,4.1,0,0,1-8.207,0C8,56,12.1,48,12.1,48S16.207,56,16.207,58.259Z" transform="translate(-8 -37.741)" fill="#2488ff"/>
      <path id="Path_3573" data-name="Path 3573" d="M22.207,63.259a4.1,4.1,0,0,1-8.207,0C14,61,18.1,53,18.1,53S22.207,61,22.207,63.259Z" transform="translate(-1.69 -32.483)" fill="#2488ff"/>
    </g>
    <path id="Path_3574" data-name="Path 3574" d="M35.32,55.716l17.481,4.7,10.587-7.8L58.115,40.595,40.778,35.938A20.517,20.517,0,1,1,65.439,68.293V93.632H44.922V68.293a20.517,20.517,0,0,1-9.6-12.577Z" transform="translate(33.992 28.368)" fill="#d8d7da"/>
  </g>
</svg>
