<svg xmlns="http://www.w3.org/2000/svg" width="116.983" height="119" viewBox="0 0 116.983 119">
  <g id="icon-01" transform="translate(-3 -2)">
    <path id="Path_3575" data-name="Path 3575" d="M15,14H83.576v8.068H15Z" transform="translate(12.203 12.203)" fill="#57565c"/>
    <path id="Path_3576" data-name="Path 3576" d="M66.374,16.119V26.2c0,.04-3.953,0-3.953,0a.087.087,0,0,0-.081.081V36.934a5.29,5.29,0,0,1-4.578,5.385,5.042,5.042,0,0,1-5.426-4.155.083.083,0,0,0-.161,0,5.042,5.042,0,0,1-9.923,0,.085.085,0,0,0-.161,0,5.042,5.042,0,0,1-9.923,0,.083.083,0,0,0-.161,0,5.042,5.042,0,0,1-5.426,4.155A5.29,5.29,0,0,1,22,36.934V14.122c0-.02,0-.02.02-.04l3.994-6.011c.02-.02.02-.02.02-.04S25.995,2,26.035,2H58.306c.04,0,0,5.97,0,5.97a.087.087,0,0,0,.081.081s7.987,8.048,7.987,8.068Z" transform="translate(19.321)" fill="#ffcbbe"/>
    <path id="Path_3577" data-name="Path 3577" d="M3,26H119.983V50.2H3Z" transform="translate(0 24.407)" fill="#fb961f"/>
    <path id="Path_3578" data-name="Path 3578" d="M18,18h8.068V34.136H18Z" transform="translate(15.254 16.271)" fill="#898890"/>
    <path id="Path_3579" data-name="Path 3579" d="M42,18h8.068V34.136H42Z" transform="translate(39.661 16.271)" fill="#898890"/>
    <path id="Path_3580" data-name="Path 3580" d="M3,38H119.983V84.39H3Z" transform="translate(0 36.61)" fill="#ffc740"/>
    <path id="Path_3581" data-name="Path 3581" d="M20.7,37.574l8.068,8.068,4.278-1.426,1.428-4.278L26.406,31.87a12.084,12.084,0,0,1,17.3,11.065,7.931,7.931,0,0,0,2.348,5.732l19.8,19.8a6.051,6.051,0,1,1-8.558,8.556l-19.78-19.78a8.2,8.2,0,0,0-5.849-2.354A12.082,12.082,0,0,1,20.7,37.574Z" transform="translate(16.789 29.171)" fill="#d8d7da"/>
    <path id="Path_3582" data-name="Path 3582" d="M6.051,0A6.051,6.051,0,0,1,12.1,6.051V28.237H0V6.051A6.051,6.051,0,0,1,6.051,0Z" transform="translate(80.622 59.009) rotate(45)" fill="#8cc63e"/>
    <path id="Path_3583" data-name="Path 3583" d="M36.667,59.419,49.5,46.583l-5.7-5.7L30.963,53.715H28.111L20.979,63.7,26.685,69.4l9.982-7.132Z" transform="translate(18.284 39.538)" fill="#e9e9ea"/>
    <g id="Group_83" data-name="Group 83" transform="translate(13.085 68.559)">
      <path id="Path_3584" data-name="Path 3584" d="M8,35H18.085V49.119H8Z" transform="translate(-8 -35)" fill="#787680"/>
      <path id="Path_3585" data-name="Path 3585" d="M51,35H61.085V49.119H51Z" transform="translate(35.729 -35)" fill="#787680"/>
    </g>
  </g>
</svg>
