<svg xmlns="http://www.w3.org/2000/svg" width="120" height="127.848" viewBox="0 0 120 127.848">
  <g id="icon-07" transform="translate(-5 -3)">
    <path id="Path_3602" data-name="Path 3602" d="M84.353,102.192v24.247a4.409,4.409,0,0,1-4.409,4.409H9.409A4.409,4.409,0,0,1,5,126.439V7.409A4.409,4.409,0,0,1,9.409,3H79.945a4.409,4.409,0,0,1,4.409,4.409Z" transform="translate(0 0)" fill="#e0e0e2"/>
    <path id="Path_3603" data-name="Path 3603" d="M84.353,102.192v24.247a4.409,4.409,0,0,1-4.409,4.409H9.409A4.409,4.409,0,0,1,5,126.439V7.409A4.409,4.409,0,0,1,9.409,3H79.945a4.409,4.409,0,0,1,4.409,4.409Z" transform="translate(0 0)" fill="#e0e0e2"/>
    <path id="Path_3604" data-name="Path 3604" d="M84.353,107.192H5V8H84.353v99.192Z" transform="translate(0 6.021)" fill="#57a4ff"/>
    <rect id="Rectangle_660" data-name="Rectangle 660" width="80" height="70" rx="2" transform="translate(45 29.587)" fill="#ffc740"/>
    <path id="Path_3605" data-name="Path 3605" d="M29.811,26.213l8.817,8.817L43.3,33.472,44.864,28.8,36.047,19.98A13.206,13.206,0,0,1,54.955,32.072a8.667,8.667,0,0,0,2.566,6.265L79.156,59.972a6.613,6.613,0,0,1-9.353,9.35L48.186,47.7a8.958,8.958,0,0,0-6.392-2.572A13.2,13.2,0,0,1,29.811,26.213Z" transform="translate(28.312 18.888)" fill="#d8d7da"/>
    <path id="Path_3606" data-name="Path 3606" d="M6.613,0a6.613,6.613,0,0,1,6.613,6.613V30.86H0V6.613A6.613,6.613,0,0,1,6.613,0Z" transform="translate(105.257 36.648) rotate(45)" fill="#8cc63e"/>
    <path id="Path_3607" data-name="Path 3607" d="M47.124,49.141,61.152,35.113l-6.234-6.234L40.89,42.907H37.773L29.979,53.816l6.236,6.236,10.909-7.794Z" transform="translate(30.081 31.165)" fill="#e9e9ea"/>
    <path id="Path_3608" data-name="Path 3608" d="M21,56h8.817v4.409H21Z" transform="translate(19.268 63.826)" fill="#5bcbfa"/>
  </g>
</svg>
