<svg xmlns="http://www.w3.org/2000/svg" width="57.827" height="58.099" viewBox="0 0 57.827 58.099">
  <g id="icon-serv09" transform="translate(-2.898 -3.001)">
    <path id="Path_3622" data-name="Path 3622" d="M.992,13h50V59h-50Z" transform="translate(-10.106 61.856) rotate(-89.771)" fill="#365e7d"/>
    <path id="Path_3623" data-name="Path 3623" d="M4.992,17h42V55h-42Z" transform="translate(-10.106 61.856) rotate(-89.771)" fill="#83d8f4"/>
    <path id="Path_3624" data-name="Path 3624" d="M35.09,8.03,32,8.02a5.993,5.993,0,0,0-11.82-.04l-3.09-.01a3.984,3.984,0,0,0-4.01,3.98l-.02,4,26,.1.02-4a4.014,4.014,0,0,0-3.99-4.02ZM26.08,10a2,2,0,1,1,2.01-1.99A2,2,0,0,1,26.08,10Z" fill="#ffc740"/>
    <path id="Path_3625" data-name="Path 3625" d="M11.293,25.707l3,3A1,1,0,0,0,15,29h.039a1,1,0,0,0,.72-.348l6-7-1.518-1.3-5.3,6.18L12.7,24.3Z" fill="#ec455a"/>
    <g id="Group_86" data-name="Group 86">
      <path id="Path_3626" data-name="Path 3626" d="M23,24H40v2H23Z" fill="#1a6fb0"/>
      <path id="Path_3627" data-name="Path 3627" d="M36,36H23v2H40Z" fill="#1a6fb0"/>
      <path id="Path_3628" data-name="Path 3628" d="M23,47H40v2H23Z" fill="#1a6fb0"/>
    </g>
    <path id="Path_3629" data-name="Path 3629" d="M14.943,38.529l-2.236-2.236-1.414,1.414,3,3A1,1,0,0,0,15,41h.039a1,1,0,0,0,.72-.348l6-7-1.518-1.3Z" fill="#ec455a"/>
    <path id="Path_3630" data-name="Path 3630" d="M14.943,49.529l-2.236-2.236-1.414,1.414,3,3A1,1,0,0,0,15,52h.039a1,1,0,0,0,.72-.348l6-7-1.518-1.3Z" fill="#ec455a"/>
    <path id="Path_3631" data-name="Path 3631" d="M35.1,33.1l4,4,2.121-.707.708-2.121-4-4a5.991,5.991,0,0,1,8.578,5.486A3.932,3.932,0,0,0,47.671,38.6l9.815,9.815a3,3,0,1,1-4.243,4.242L43.436,42.85a4.064,4.064,0,0,0-2.9-1.167A5.99,5.99,0,0,1,35.1,33.1Z" fill="#d8d7da"/>
    <path id="Path_3632" data-name="Path 3632" d="M53.657,29.343a3,3,0,0,1,3,3v11h-6v-11a3,3,0,0,1,3-3Z" transform="translate(41.414 -27.296) rotate(45)" fill="#8cc63e"/>
    <path id="Path_3633" data-name="Path 3633" d="M43.757,49.071l6.364-6.364-2.828-2.828-6.364,6.364H39.515l-3.536,4.949,2.829,2.829,4.949-3.536Z" fill="#e9e9ea"/>
  </g>
</svg>
