<svg xmlns="http://www.w3.org/2000/svg" width="106.688" height="119" viewBox="0 0 106.688 119">
  <g id="icon-02" transform="translate(-6 -3)">
    <path id="Path_3541" data-name="Path 3541" d="M81.654,79.31V57.685a12.292,12.292,0,0,0-8.781-11.777l-4.432-1.334c-4.329-1.313-34.9-1.313-39.228,0l-4.432,1.334A12.292,12.292,0,0,0,16,57.685V79.31Z" transform="translate(10.517 42.688)" fill="#365e7d"/>
    <path id="Path_3542" data-name="Path 3542" d="M59.031,53.942a27.082,27.082,0,0,1-35.741,0,10.23,10.23,0,0,0,5.56-9.11V34H53.47V44.833a10.23,10.23,0,0,0,5.56,9.11Z" transform="translate(18.184 32.603)" fill="#ffcbbe"/>
    <path id="Path_3543" data-name="Path 3543" d="M69.718,46.271l-4.432-1.334a10.258,10.258,0,0,1-3.256-1.693l-2,17.963H31.31l-2-17.963a10.258,10.258,0,0,1-3.256,1.693l-4.432,1.334A12.269,12.269,0,0,0,19,47.447V79.673H72.344V47.447a12.269,12.269,0,0,0-2.626-1.176Z" transform="translate(13.672 42.326)" fill="#ffc740"/>
    <path id="Path_3544" data-name="Path 3544" d="M23,57H61.982v8.207H23Z" transform="translate(17.879 56.792)" fill="#ffaf40"/>
    <path id="Path_3545" data-name="Path 3545" d="M42.517,63.189A20.517,20.517,0,0,1,22,42.672V16H63.034V42.672A20.517,20.517,0,0,1,42.517,63.189Z" transform="translate(16.827 13.672)" fill="#ffddce"/>
    <path id="Path_3546" data-name="Path 3546" d="M22.1,19h4.1V29.258H22.1a4.1,4.1,0,0,1-4.1-4.1V23.1A4.1,4.1,0,0,1,22.1,19Z" transform="translate(12.62 16.827)" fill="#ffcbbe"/>
    <path id="Path_3547" data-name="Path 3547" d="M4.1,0h4.1V10.258H4.1A4.1,4.1,0,0,1,0,6.155V4.1A4.1,4.1,0,0,1,4.1,0Z" transform="translate(88.068 46.086) rotate(180)" fill="#ffcbbe"/>
    <path id="Path_3548" data-name="Path 3548" d="M41.31,31c0,2.257-2.755,4.1-6.155,4.1S29,33.257,29,31Z" transform="translate(24.189 29.448)" fill="none"/>
    <path id="Path_3549" data-name="Path 3549" d="M66.137,35.827H21V25.569a22.569,22.569,0,1,1,45.137,0Z" transform="translate(15.775 0)" fill="#365e7d"/>
    <path id="Path_3550" data-name="Path 3550" d="M63.034,25.31H22L28.155,13H56.879Z" transform="translate(16.827 10.517)" fill="#a7daf7"/>
    <path id="Path_3551" data-name="Path 3551" d="M15.213,27.34V38.953L19.317,41l4.1-2.052V27.361a12.29,12.29,0,0,1,4.485,20.4,8.075,8.075,0,0,0-2.433,5.8V88.193H13.162V53.581a8.332,8.332,0,0,0-2.517-5.9A12.292,12.292,0,0,1,15.213,27.34Z" transform="translate(1.045 25.598)" fill="#d8d7da"/>
    <path id="Path_3552" data-name="Path 3552" d="M26.478,66.216a8.443,8.443,0,0,1-8.517,7.4H6V53.1A4.116,4.116,0,0,1,10.1,49h4.1a2.052,2.052,0,0,1,2.052,2.052v6.155H18.31a8.207,8.207,0,0,1,8.168,9.009Z" transform="translate(0 48.378)" fill="#ffddce"/>
    <path id="Path_3553" data-name="Path 3553" d="M48,44H60.31V66.569a6.155,6.155,0,0,1-12.31,0Z" transform="translate(44.171 43.12)" fill="#8cc63e"/>
    <path id="Path_3554" data-name="Path 3554" d="M58.258,42.362V60.827H50.052V42.362L48,40.31,50.052,28h8.207L60.31,40.31Z" transform="translate(44.171 26.292)" fill="#e9e9ea"/>
    <path id="Path_3555" data-name="Path 3555" d="M68.517,53.1V73.62H56.556a8.443,8.443,0,0,1-8.517-7.4,8.207,8.207,0,0,1,8.168-9.009h2.052V51.052A2.052,2.052,0,0,1,60.31,49h4.1a4.116,4.116,0,0,1,4.1,4.1Z" transform="translate(44.171 48.378)" fill="#ffddce"/>
    <g id="Group_81" data-name="Group 81" transform="translate(49.086 44.034)">
      <path id="Path_3556" data-name="Path 3556" d="M29.052,29.155A2.052,2.052,0,0,0,31.1,27.1V25.052a2.052,2.052,0,0,0-4.1,0V27.1A2.052,2.052,0,0,0,29.052,29.155Z" transform="translate(-27 -23)" fill="#3e3d42"/>
      <path id="Path_3557" data-name="Path 3557" d="M37.052,29.155A2.052,2.052,0,0,0,39.1,27.1V25.052a2.052,2.052,0,1,0-4.1,0V27.1A2.052,2.052,0,0,0,37.052,29.155Z" transform="translate(-18.586 -23)" fill="#3e3d42"/>
      <path id="Path_3558" data-name="Path 3558" d="M36.207,37.155c4.6,0,8.207-2.7,8.207-6.155h-4.1c0,.837-1.6,2.052-4.1,2.052S32.1,31.837,32.1,31H28C28,34.451,31.6,37.155,36.207,37.155Z" transform="translate(-25.948 -14.586)" fill="#3e3d42"/>
    </g>
  </g>
</svg>
