<svg xmlns="http://www.w3.org/2000/svg" width="20" height="24" viewBox="0 0 20 24">
  <path id="menu_order" d="M17,24H7a5.006,5.006,0,0,1-5-5V5A5.006,5.006,0,0,1,7,0H17a5.006,5.006,0,0,1,5,5V19A5.006,5.006,0,0,1,17,24ZM7,2A3,3,0,0,0,4,5V19a3,3,0,0,0,3,3H17a3,3,0,0,0,3-3V5a3,3,0,0,0-3-3ZM18,6a1,1,0,0,0-1-1H13a1,1,0,0,0,0,2h4A1,1,0,0,0,18,6Zm0,6a1,1,0,0,0-1-1H13a1,1,0,0,0,0,2h4A1,1,0,0,0,18,12Zm0,6a1,1,0,0,0-1-1H13a1,1,0,0,0,0,2h4A1,1,0,0,0,18,18ZM10,7V5A1,1,0,0,0,9,4H7A1,1,0,0,0,6,5V7A1,1,0,0,0,7,8H9A1,1,0,0,0,10,7Zm0,6V11a1,1,0,0,0-1-1H7a1,1,0,0,0-1,1v2a1,1,0,0,0,1,1H9A1,1,0,0,0,10,13Zm0,6V17a1,1,0,0,0-1-1H7a1,1,0,0,0-1,1v2a1,1,0,0,0,1,1H9A1,1,0,0,0,10,19Z" transform="translate(-2)" fill="#dc9928"/>
</svg>
