<svg xmlns="http://www.w3.org/2000/svg" width="73.61" height="88.333" viewBox="0 0 73.61 88.333">
  <path id="Path_4188" data-name="Path 4188" d="M63.026,7.877,39.968.188a3.68,3.68,0,0,0-2.326,0L14.584,7.877A18.377,18.377,0,0,0,2,25.334V44.167C2,72,35.861,87.376,37.311,88.016a3.68,3.68,0,0,0,2.989,0C41.749,87.376,75.61,72,75.61,44.167V25.334A18.377,18.377,0,0,0,63.026,7.877Zm5.223,36.29c0,20.077-23.257,33.246-29.444,36.4C32.611,77.424,9.361,64.3,9.361,44.167V25.334a11.041,11.041,0,0,1,7.551-10.474L38.8,7.56l21.892,7.3a11.042,11.042,0,0,1,7.552,10.475Z" transform="translate(-2 0)" fill="#fff"/>
</svg>
