<svg xmlns="http://www.w3.org/2000/svg" width="67.902" height="90.537" viewBox="0 0 67.902 90.537">
  <path id="icon_clipboard-list" d="M52.041,67.9H36.951a3.772,3.772,0,1,1,0-7.545H52.041a3.772,3.772,0,1,1,0,7.545ZM70.9,71.675V26.407A18.883,18.883,0,0,0,52.041,7.545H51.4A11.339,11.339,0,0,0,40.724,0H33.179A11.339,11.339,0,0,0,22.507,7.545h-.645A18.883,18.883,0,0,0,3,26.407V71.675A18.883,18.883,0,0,0,21.862,90.537H52.041A18.883,18.883,0,0,0,70.9,71.675ZM25.634,15.089a3.771,3.771,0,0,0,3.772-3.772,3.774,3.774,0,0,1,3.772-3.772h7.545A3.776,3.776,0,0,1,44.5,11.317a3.774,3.774,0,0,0,3.772,3.772h3.772A11.331,11.331,0,0,1,63.358,26.407V71.675A11.331,11.331,0,0,1,52.041,82.992H21.862A11.331,11.331,0,0,1,10.545,71.675V26.407A11.331,11.331,0,0,1,21.862,15.089ZM21.862,60.358a3.772,3.772,0,1,0,3.772,3.772A3.774,3.774,0,0,0,21.862,60.358ZM55.813,49.041a3.771,3.771,0,0,0-3.772-3.772H36.951a3.772,3.772,0,0,0,0,7.545H52.041A3.771,3.771,0,0,0,55.813,49.041ZM21.862,45.268a3.772,3.772,0,1,0,3.772,3.772A3.774,3.774,0,0,0,21.862,45.268ZM55.813,33.951a3.771,3.771,0,0,0-3.772-3.772H36.951a3.772,3.772,0,1,0,0,7.545H52.041A3.771,3.771,0,0,0,55.813,33.951ZM21.862,30.179a3.772,3.772,0,1,0,3.772,3.772A3.774,3.774,0,0,0,21.862,30.179Z" transform="translate(-3)" fill="#fff"/>
</svg>
