<svg xmlns="http://www.w3.org/2000/svg" width="34.003" height="34" viewBox="0 0 34.003 34">
  <g id="payment-method" transform="translate(0 -0.023)">
    <path id="Path_4741" data-name="Path 4741" d="M107.34,372.017v5.266c3,.132,2.134.662,7.352,3.009a4.939,4.939,0,0,0,3.842-.065h0l10.252-3.671c.334-.153,2.016-1.068,1.353-2.771-.776-1.816-2.773-1.058-2.94-1l-5.352,1.48" transform="translate(-100.211 -347.289)" fill="#eac092"/>
    <g id="Group_3838" data-name="Group 3838" transform="translate(7.129 21.268)">
      <path id="Path_4742" data-name="Path 4742" d="M113.4,325.584l5.96,1.889a1.958,1.958,0,0,0,2.419-1.348h0a2.149,2.149,0,0,0-1.5-2.566l-5.288-1.795a4.5,4.5,0,0,0-3.817-1.844,4.813,4.813,0,0,0-3.831,2.573v2.4" transform="translate(-107.341 -319.921)" fill="#fedbab"/>
    </g>
    <path id="Path_4743" data-name="Path 4743" d="M153.414,385.185a.654.654,0,0,1-.13-.013.643.643,0,0,1-.125-.038.669.669,0,0,1-.114-.061.645.645,0,0,1-.183-.183.616.616,0,0,1-.061-.115.624.624,0,0,1-.038-.124.638.638,0,0,1,0-.259.643.643,0,0,1,.038-.125.655.655,0,0,1,.244-.3.673.673,0,0,1,.114-.061.643.643,0,0,1,.125-.038.655.655,0,0,1,.259,0,.623.623,0,0,1,.124.038.655.655,0,0,1,.115.061.645.645,0,0,1,.183.183.674.674,0,0,1,.061.114.694.694,0,0,1,.038.125.638.638,0,0,1,0,.259.671.671,0,0,1-.038.124.658.658,0,0,1-.061.115.645.645,0,0,1-.183.183.655.655,0,0,1-.115.061.623.623,0,0,1-.124.038A.654.654,0,0,1,153.414,385.185Z" transform="translate(-142.605 -358.342)"/>
    <rect id="Rectangle_789" data-name="Rectangle 789" width="2.516" height="7.135" transform="translate(4.613 23.756)" fill="#eaecf0"/>
    <rect id="Rectangle_790" data-name="Rectangle 790" width="3.949" height="8.373" transform="translate(0.664 23.756)" fill="#3688c8"/>
    <path id="Path_4744" data-name="Path 4744" d="M30.549,315.571l-.008-.02c-.611-1.43-2.045-1.959-3.741-1.38l-4.627,1.28a3.033,3.033,0,0,0-1.878-1.85l-.018-.006-5.086-1.726a5.246,5.246,0,0,0-4.232-1.947,5.311,5.311,0,0,0-4.148,2.488H.664a.664.664,0,0,0-.664.664v8.373a.664.664,0,0,0,.664.664H4.613a.664.664,0,0,0,.664-.664v-.573H7.129a.664.664,0,0,0,.664-.664v-.191a4.709,4.709,0,0,1,2.426.871,40.192,40.192,0,0,0,3.99,2.037l.029.012a5.961,5.961,0,0,0,2.137.4,5.294,5.294,0,0,0,2.2-.471L28.8,319.208l.054-.022A2.835,2.835,0,0,0,30.549,315.571Zm-26.6,5.212H1.328v-7.045h2.62Zm2.516-1.238H5.277v-5.807H6.465Zm21.86-1.577L18.1,321.628l-.03.012-.027.012a4.3,4.3,0,0,1-3.307.056,38.464,38.464,0,0,1-3.856-1.97,5.978,5.978,0,0,0-3.089-1.051v-5.349a4.1,4.1,0,0,1,3.166-2.088,3.832,3.832,0,0,1,3.251,1.527.664.664,0,0,0,.352.281l5.278,1.791a1.49,1.49,0,0,1,1.084,1.758,1.294,1.294,0,0,1-1.59.893l-5.95-1.886a.664.664,0,1,0-.4,1.266l5.96,1.889.019.006a2.607,2.607,0,0,0,1.994-.232,2.6,2.6,0,0,0,1.246-1.573q.023-.081.041-.161l4.986-1.381c.72-.246,1.666-.335,2.086.635C29.751,317.2,28.619,317.828,28.325,317.968Z" transform="translate(0 -289.318)"/>
    <path id="Path_4745" data-name="Path 4745" d="M53.023,15.922l-5.9-5.9-7.4,7.4L52.366,30.056l6.979-6.979" transform="translate(-37.09 -9.336)" fill="#26cfad"/>
    <path id="Path_4746" data-name="Path 4746" d="M146.453,113.956h0v0a3.122,3.122,0,1,0,3.335,3.193" transform="translate(-134.014 -106.362)" fill="#ffd36c"/>
    <path id="Path_4747" data-name="Path 4747" d="M203.773,33.957V28.691c-3-.132-2.134-.662-7.352-3.009a4.939,4.939,0,0,0-3.842.065h0l-3.093,1.107,3.191,3.191" transform="translate(-176.899 -23.619)" fill="#eac092"/>
    <g id="Group_3839" data-name="Group 3839" transform="translate(2.639 0.687)">
      <path id="Path_4748" data-name="Path 4748" d="M39.729,86.135l2.507-2.507a3.549,3.549,0,0,1,0,5.014Z" transform="translate(-39.729 -78.74)" fill="#00b192"/>
      <path id="Path_4749" data-name="Path 4749" d="M192.264,259.338a3.549,3.549,0,0,1,5.014,0l-2.507,2.507Z" transform="translate(-182.134 -241.812)" fill="#00b192"/>
      <path id="Path_4750" data-name="Path 4750" d="M113.333,12.53l2.507-2.507,2.507,2.507A3.549,3.549,0,0,1,113.333,12.53Z" transform="translate(-108.445 -10.023)" fill="#00b192"/>
      <path id="Path_4751" data-name="Path 4751" d="M288.22,182.048a3.55,3.55,0,0,0,.825,3.72l2.09-2.09" transform="translate(-271.518 -170.623)" fill="#00b192"/>
    </g>
    <g id="Group_3840" data-name="Group 3840" transform="translate(12.365 6.171)">
      <path id="Path_4752" data-name="Path 4752" d="M194.644,94.549l-5.96-1.889a1.958,1.958,0,0,0-2.419,1.348h0a2.149,2.149,0,0,0,1.5,2.566l5.29,1.8h0a4.494,4.494,0,0,0,3.817,1.844,4.813,4.813,0,0,0,3.831-2.573v-2.4" transform="translate(-186.19 -92.585)" fill="#fedbab"/>
    </g>
    <path id="Path_4753" data-name="Path 4753" d="M339.914,124.826a.654.654,0,0,1-.129-.013.67.67,0,0,1-.124-.038.655.655,0,0,1-.115-.061.645.645,0,0,1-.183-.183.654.654,0,0,1-.061-.115.626.626,0,0,1-.038-.124.638.638,0,0,1,0-.259.645.645,0,0,1,.038-.125.673.673,0,0,1,.061-.114.645.645,0,0,1,.183-.183.655.655,0,0,1,.115-.061.624.624,0,0,1,.124-.038.661.661,0,0,1,.384.038.673.673,0,0,1,.114.061.664.664,0,0,1,.244.3.663.663,0,0,1,.039.384.629.629,0,0,1-.039.124.616.616,0,0,1-.061.115.646.646,0,0,1-.183.183.673.673,0,0,1-.114.061.7.7,0,0,1-.124.038A.666.666,0,0,1,339.914,124.826Z" transform="translate(-316.72 -115.274)"/>
    <rect id="Rectangle_791" data-name="Rectangle 791" width="2.516" height="7.135" transform="translate(26.875 4.174)" fill="#eaecf0"/>
    <rect id="Rectangle_792" data-name="Rectangle 792" width="3.949" height="8.373" transform="translate(29.39 2.937)" fill="#3688c8"/>
    <path id="Path_4754" data-name="Path 4754" d="M61.058,2.272H57.109a.664.664,0,0,0-.664.664V3.51H54.593a.664.664,0,0,0-.664.664v.191A4.709,4.709,0,0,1,51.5,3.495a40.186,40.186,0,0,0-3.99-2.037l-.029-.012a5.65,5.65,0,0,0-4.337.068l-2.672.957L38.223.218a.664.664,0,0,0-.939,0l-7.4,7.4a.659.659,0,0,0,0,.939L42.525,21.19a.718.718,0,0,0,.939,0l6.752-6.752c.176.015.358.023.547.023a5.311,5.311,0,0,0,4.148-2.488h6.147a.664.664,0,0,0,.664-.664V2.937A.664.664,0,0,0,61.058,2.272ZM39.437,8.432a2.94,2.94,0,0,0,1.99,2.35l.018.006,1.328.451a2.458,2.458,0,1,1-3.336-2.807Zm1.328-2.593a2.6,2.6,0,0,0-1.082,1.143,3.785,3.785,0,1,0,4.352,4.686l2.242.761a4.24,4.24,0,0,0,.7,3.366l-1.517,1.517a4.22,4.22,0,0,0-4.94,0l-6.758-6.758a4.22,4.22,0,0,0,0-4.941L35.282,4.1a4.22,4.22,0,0,0,4.941,0L41.66,5.534A2.621,2.621,0,0,0,40.766,5.839Zm7.173,9a2.9,2.9,0,0,1-.424-1.381,5.164,5.164,0,0,0,1.171.634ZM37.753,1.627,39.267,3.14a2.9,2.9,0,0,1-3.027,0ZM32.81,6.569a2.9,2.9,0,0,1,0,3.027L31.3,8.083ZM42.995,19.781l-1.513-1.513a2.892,2.892,0,0,1,3.027,0Zm7.768-6.648a4.834,4.834,0,0,1-.693-.049h0a3.8,3.8,0,0,1-2.46-1.346c-.014-.02-.071-.1-.08-.108a.662.662,0,0,0-.366-.3l-5.28-1.792A1.49,1.49,0,0,1,40.8,7.776h0v0a1.294,1.294,0,0,1,1.589-.891l5.95,1.886a.664.664,0,0,0,.4-1.266L44.007,6l-.041-.041h0l-2.45-2.45,2.106-.754.023-.009.007,0,.027-.012a4.3,4.3,0,0,1,3.307-.056,38.47,38.47,0,0,1,3.856,1.97A5.977,5.977,0,0,0,53.929,5.7v5.349A4.1,4.1,0,0,1,50.763,13.133Zm4.495-8.295h1.188v5.807H55.258Zm5.136,5.807h-2.62V3.6h2.62Z" transform="translate(-27.719 0)"/>
  </g>
</svg>
