<svg xmlns="http://www.w3.org/2000/svg" width="24" height="24" viewBox="0 0 24 24">
  <path id="house-building" d="M19,15H18a1,1,0,0,1,0-2h1a1,1,0,0,1,0,2Zm1,3a1,1,0,0,0-1-1H18a1,1,0,0,0,0,2h1A1,1,0,0,0,20,18ZM16,6a1,1,0,0,0-1-1H14a1,1,0,0,0,0,2h1A1,1,0,0,0,16,6Zm4,0a1,1,0,0,0-1-1H18a1,1,0,0,0,0,2h1A1,1,0,0,0,20,6Zm0,4a1,1,0,0,0-1-1H18a1,1,0,0,0,0,2h1A1,1,0,0,0,20,10Zm4,9V5a5.006,5.006,0,0,0-5-5H14A5.006,5.006,0,0,0,9,5a1,1,0,0,0,2,0,3,3,0,0,1,3-3h5a3,3,0,0,1,3,3V19a3,3,0,0,1-3,3H18a1,1,0,0,0,0,2h1A5.006,5.006,0,0,0,24,19Zm-8,.5V15.348a4.972,4.972,0,0,0-1.919-3.938l-3-2.349a4.993,4.993,0,0,0-6.162,0l-3,2.348A4.97,4.97,0,0,0,0,15.347V19.5A4.505,4.505,0,0,0,4.5,24h7A4.505,4.505,0,0,0,16,19.5ZM9.849,10.637l3,2.348A2.986,2.986,0,0,1,14,15.348V19.5A2.5,2.5,0,0,1,11.5,22h-7A2.5,2.5,0,0,1,2,19.5V15.348a2.985,2.985,0,0,1,1.151-2.363l3-2.347a3,3,0,0,1,3.7,0ZM10,18V16a1,1,0,0,0-1-1H7a1,1,0,0,0-1,1v2a1,1,0,0,0,1,1H9A1,1,0,0,0,10,18Z" fill="#7b7b7b"/>
</svg>
