<svg xmlns="http://www.w3.org/2000/svg" width="17" height="18.551" viewBox="0 0 17 18.551">
  <path id="tags" d="M6.184,7.154a.773.773,0,1,1-1.093,0,.772.772,0,0,1,1.093,0Zm10.707,4.7-.437.437a3.847,3.847,0,0,1-1.109,2.627L12.9,17.4a3.838,3.838,0,0,1-2.739,1.149h-.013a3.838,3.838,0,0,1-2.732-1.132L1.682,11.735a2.309,2.309,0,0,1-.668-1.9l.591-5.346a.773.773,0,0,1,.663-.681l5.325-.728a2.333,2.333,0,0,1,1.954.658l5.778,5.729a3.859,3.859,0,0,1,.72,1A2.327,2.327,0,0,0,15.78,7.5L9.913,1.779a.78.78,0,0,0-.658-.226L3.93,2.282A.773.773,0,1,1,3.72.75L9.045.021A2.319,2.319,0,0,1,11,.68L16.865,6.4a3.876,3.876,0,0,1,.025,5.455Zm-2.657-1.291L8.456,4.838A.786.786,0,0,0,7.8,4.616l-4.727.647L2.55,10.009a.768.768,0,0,0,.222.631L8.5,16.323A2.3,2.3,0,0,0,10.145,17h.008a2.3,2.3,0,0,0,1.643-.69l2.448-2.48a2.324,2.324,0,0,0-.011-3.269Z" transform="translate(-1 0.001)" fill="#7b7b7b"/>
</svg>
