<svg xmlns="http://www.w3.org/2000/svg" width="19" height="15.831" viewBox="0 0 19 15.831">
  <path id="icon_cloud-upload" d="M14.229,6.075a.817.817,0,0,1-.587-.45A6.374,6.374,0,0,0,6.728,2.111,6.291,6.291,0,0,0,1.674,7.258,6.436,6.436,0,0,0,1.7,9.546a.787.787,0,0,1-.274.713,4.354,4.354,0,0,0,2.928,7.576h8.708A5.938,5.938,0,0,0,14.229,6.076ZM13.062,16.251H4.354A2.771,2.771,0,0,1,2.491,11.43a2.378,2.378,0,0,0,.762-2.187,4.862,4.862,0,0,1-.019-1.727A4.765,4.765,0,0,1,7.011,3.667a5.068,5.068,0,0,1,.907-.082A4.711,4.711,0,0,1,12.211,6.3a2.385,2.385,0,0,0,1.708,1.324,4.355,4.355,0,0,1-.857,8.624Zm-1.092-6.1a.792.792,0,1,1-1.119,1.119L9.5,9.918v3.958a.792.792,0,0,1-1.583,0V9.918L6.565,11.269A.792.792,0,1,1,5.446,10.15L7.589,8.007A1.576,1.576,0,0,1,8.7,7.545l.011,0,.011,0a1.575,1.575,0,0,1,1.108.462l2.143,2.143Z" transform="translate(0 -2.004)" fill="#fff"/>
</svg>
