<svg xmlns="http://www.w3.org/2000/svg" width="36.072" height="37.236" viewBox="0 0 36.072 37.236">
  <g id="wallet" transform="translate(-8.008 0)">
    <path id="Path_4240" data-name="Path 4240" d="M63.837,177.58H35.486a1.267,1.267,0,0,0-1.267,1.267v3.4H65.1v-3.4A1.267,1.267,0,0,0,63.837,177.58Z" transform="translate(-24.305 -164.665)" fill="#ffb125"/>
    <path id="Path_4241" data-name="Path 4241" d="M71.125,47.791,68.558,73.783a1.188,1.188,0,0,1-1.3,1.065L54.25,73.563a1.188,1.188,0,0,1-1.065-1.3l2.567-25.991a1.188,1.188,0,0,1,1.3-1.065L70.06,46.493A1.188,1.188,0,0,1,71.125,47.791Z" transform="translate(-41.886 -41.914)" fill="#b6fa4c"/>
    <path id="Path_4242" data-name="Path 4242" d="M99.932,46.493,86.923,45.208a1.188,1.188,0,0,0-1.3,1.065l-.23,2.332a1.181,1.181,0,0,1,.653-.123l13.009,1.285a1.188,1.188,0,0,1,1.065,1.3L97.785,74.725a1.186,1.186,0,0,0,.646-.942L101,47.792A1.188,1.188,0,0,0,99.932,46.493Z" transform="translate(-71.758 -41.914)" fill="#a8e83a"/>
    <path id="Path_4243" data-name="Path 4243" d="M83.594,81.043,81.721,100a.718.718,0,0,0,.332.68,3.483,3.483,0,0,1,1.4,1.695.717.717,0,0,0,.6.452l6.744.666a.717.717,0,0,0,.676-.326,3.484,3.484,0,0,1,1.707-1.387.718.718,0,0,0,.459-.6l1.873-18.961a.718.718,0,0,0-.332-.68,3.484,3.484,0,0,1-1.4-1.695.717.717,0,0,0-.6-.452l-6.744-.666a.717.717,0,0,0-.676.326,3.484,3.484,0,0,1-1.707,1.387A.718.718,0,0,0,83.594,81.043Z" transform="translate(-68.349 -72.999)" fill="#7d0"/>
    <path id="Path_4244" data-name="Path 4244" d="M118.2,81.54a3.483,3.483,0,0,1-1.4-1.695.717.717,0,0,0-.6-.452l-6.744-.666a.717.717,0,0,0-.676.326,3.484,3.484,0,0,1-1.707,1.387.718.718,0,0,0-.459.6l-.071.722,8.738.836a.717.717,0,0,1,.6.452,3.484,3.484,0,0,0,1.4,1.695.718.718,0,0,1,.332.68l-1.624,16.445c.07-.032.14-.062.212-.089a.718.718,0,0,0,.459-.6l1.873-18.961A.718.718,0,0,0,118.2,81.54Z" transform="translate(-91.366 -72.998)" fill="#73cc00"/>
    <path id="Path_4245" data-name="Path 4245" d="M98.687,16.52,83.979,38.1a1.188,1.188,0,0,1-1.651.313l-10.8-7.361a1.188,1.188,0,0,1-.313-1.651L85.921,7.821a1.188,1.188,0,0,1,1.651-.313l10.8,7.361A1.188,1.188,0,0,1,98.687,16.52Z" transform="translate(-58.417 -6.771)" fill="#b6fa4c"/>
    <path id="Path_4246" data-name="Path 4246" d="M246.734,14.869l-10.8-7.362a1.188,1.188,0,0,0-1.651.313l-1.258,1.846a1.191,1.191,0,0,1,.315.152l10.8,7.361a1.188,1.188,0,0,1,.313,1.651L231,38.567a1.188,1.188,0,0,0,1.336-.465L247.047,16.52A1.188,1.188,0,0,0,246.734,14.869Z" transform="translate(-206.777 -6.77)" fill="#a8e83a"/>
    <path id="Path_4247" data-name="Path 4247" d="M130.029,57.855,119.3,73.6a.718.718,0,0,0-.034.756,3.483,3.483,0,0,1,.419,2.16.717.717,0,0,0,.309.684l5.6,3.816a.717.717,0,0,0,.75.038,3.483,3.483,0,0,1,2.163-.4.718.718,0,0,0,.691-.308L139.928,64.6a.718.718,0,0,0,.034-.756,3.483,3.483,0,0,1-.419-2.16.717.717,0,0,0-.309-.684l-5.6-3.816a.717.717,0,0,0-.75-.038,3.483,3.483,0,0,1-2.163.4A.718.718,0,0,0,130.029,57.855Z" transform="translate(-103.081 -52.91)" fill="#7d0"/>
    <path id="Path_4248" data-name="Path 4248" d="M250.884,63.845a3.483,3.483,0,0,1-.419-2.16.717.717,0,0,0-.309-.684l-5.6-3.816a.717.717,0,0,0-.75-.038,3.483,3.483,0,0,1-2.163.4.718.718,0,0,0-.691.308l-.447.656,7,4.718a.717.717,0,0,1,.309.684,3.483,3.483,0,0,0,.42,2.16.718.718,0,0,1-.034.756l-9.4,13.8a3.469,3.469,0,0,1,.634.029.718.718,0,0,0,.691-.308L250.85,64.6A.718.718,0,0,0,250.884,63.845Z" transform="translate(-214.003 -52.91)" fill="#73cc00"/>
    <circle id="Ellipse_24" data-name="Ellipse 24" cx="3.843" cy="3.843" r="3.843" transform="translate(24.333 10.89)" fill="#b6fa4c"/>
    <path id="Path_4249" data-name="Path 4249" d="M46.738,227.492h-29.6a1.828,1.828,0,0,1-1.828-1.828V207.578a1.828,1.828,0,0,1,1.828-1.828h29.6a1.828,1.828,0,0,1,1.828,1.828v18.087A1.828,1.828,0,0,1,46.738,227.492Z" transform="translate(-6.766 -190.786)" fill="#ffb125"/>
    <path id="Path_4250" data-name="Path 4250" d="M405.109,205.749h-3.325a1.828,1.828,0,0,1,1.828,1.828v18.087a1.828,1.828,0,0,1-1.828,1.828h3.325a1.828,1.828,0,0,0,1.828-1.828V207.577A1.828,1.828,0,0,0,405.109,205.749Z" transform="translate(-365.138 -190.785)" fill="#ff901d"/>
    <path id="Path_4251" data-name="Path 4251" d="M358.091,307.189h-6.663a3.494,3.494,0,0,0-3.494,3.494h0a3.494,3.494,0,0,0,3.494,3.494h6.663a.662.662,0,0,0,.662-.662v-5.663A.662.662,0,0,0,358.091,307.189Z" transform="translate(-315.204 -284.848)" fill="#ff6d3a"/>
    <path id="Path_4252" data-name="Path 4252" d="M358.091,307.189h-3.337a.662.662,0,0,1,.662.662v4.77a.706.706,0,0,1-.706.706h-3.282a3.493,3.493,0,0,1-3.467-3.069,3.529,3.529,0,0,0-.027.424,3.494,3.494,0,0,0,3.494,3.494h6.663a.662.662,0,0,0,.662-.662v-5.663A.662.662,0,0,0,358.091,307.189Z" transform="translate(-315.204 -284.848)" fill="#ed5729"/>
    <path id="Path_4253" data-name="Path 4253" d="M46.738,205.749h-29.6a1.828,1.828,0,0,0-1.828,1.828v2h33.26v-2A1.828,1.828,0,0,0,46.738,205.749Z" transform="translate(-6.766 -190.785)" fill="#ff6d3a"/>
    <path id="Path_4254" data-name="Path 4254" d="M406.625,206.554a1.832,1.832,0,0,0-.223-.27l0,0a1.835,1.835,0,0,0-.268-.22l-.074-.048c-.037-.023-.076-.044-.115-.064l-.077-.037a1.821,1.821,0,0,0-.756-.164h-3.325a1.828,1.828,0,0,1,1.827,1.828v2h3.325v-2a1.82,1.82,0,0,0-.221-.871Q406.675,206.627,406.625,206.554Z" transform="translate(-365.139 -190.784)" fill="#ed5729"/>
    <path id="Path_4255" data-name="Path 4255" d="M17.132,455.866h29.6a1.828,1.828,0,0,0,1.828-1.828v-2H15.3v2A1.828,1.828,0,0,0,17.132,455.866Z" transform="translate(-6.765 -419.16)" fill="#ff6d3a"/>
    <path id="Path_4256" data-name="Path 4256" d="M45.24,452.035v2.006a.308.308,0,0,1-.31.3h-27.8a1.828,1.828,0,0,1-1.828-1.828v1.521a1.828,1.828,0,0,0,1.828,1.828h29.6c.036,0,.072,0,.107,0l.033,0,.074-.007.036,0,.073-.012.032-.006c.034-.007.068-.014.1-.023h0l.043-.012a1.808,1.808,0,0,0,.211-.074l.081-.037.079-.04h0q.078-.042.151-.091h0c.041-.028.081-.058.12-.089l.006,0q.059-.048.114-.1h0q.065-.062.123-.129h0a1.841,1.841,0,0,0,.166-.225l0-.006c.018-.029.036-.059.053-.09h0a1.83,1.83,0,0,0,.114-.255l.01-.03q.011-.034.022-.068l.01-.035q.009-.035.017-.07c0-.011.005-.021.007-.032.007-.034.014-.068.019-.1h0c.006-.04.01-.081.014-.122l0-.031c0-.041,0-.083,0-.125h0v-2H45.24Z" transform="translate(-6.766 -419.159)" fill="#ed5729"/>
    <circle id="Ellipse_25" data-name="Ellipse 25" cx="1.622" cy="1.622" r="1.622" transform="translate(34.726 24.213)" fill="#f2f2f2"/>
    <path id="Path_4257" data-name="Path 4257" d="M42.887,21.811H42.33V16.792a2.357,2.357,0,0,0-1-1.926h0v-.683a1.8,1.8,0,0,0-1.8-1.8h-.416l1.592-2.336a1.721,1.721,0,0,0-.452-2.388L29.453.3a1.718,1.718,0,0,0-2.388.452L17.742,14.433H15.147L15.773,8.1a.188.188,0,0,1,.118-.158,4.034,4.034,0,0,0,1.968-1.6.187.187,0,0,1,.176-.083l4.069.4a.531.531,0,1,0,.1-1.056L18.14,5.2a1.242,1.242,0,0,0-1.176.569,2.966,2.966,0,0,1-1.447,1.176,1.24,1.24,0,0,0-.8,1.046l-.636,6.441H13.4l.99-10.022a.657.657,0,0,1,.719-.59l8.224.812a.531.531,0,0,0,.1-1.056l-8.224-.812a1.721,1.721,0,0,0-1.879,1.541l-.8,8.078H11.181a1.8,1.8,0,0,0-1.8,1.8v.466a2.361,2.361,0,0,0-1.376,2.143V34.878a2.361,2.361,0,0,0,2.358,2.358h29.6a2.361,2.361,0,0,0,2.358-2.358V29.859h.557a1.194,1.194,0,0,0,1.193-1.193V23A1.194,1.194,0,0,0,42.887,21.811Zm-3.355-8.365a.737.737,0,0,1,.737.737v.27a2.365,2.365,0,0,0-.3-.019H37.72l.673-.988h1.139Zm-11.59-12.1a.653.653,0,0,1,.421-.276.667.667,0,0,1,.124-.012.653.653,0,0,1,.369.114l10.8,7.361a.658.658,0,0,1,.173.913l-3.4,4.982h-.815l1.665-2.443a1.24,1.24,0,0,0,.058-1.316,2.965,2.965,0,0,1-.355-1.83,1.241,1.241,0,0,0-.537-1.191l-5.6-3.816a1.241,1.241,0,0,0-1.3-.064,2.966,2.966,0,0,1-1.833.339,1.256,1.256,0,0,0-1.2.535l-6.669,9.786h-.815Zm.234,9.01a4.378,4.378,0,0,0-4.362,4.074H21.125l6.262-9.189h0a.189.189,0,0,1,.155-.083l.024,0A4.034,4.034,0,0,0,30.06,4.7a.187.187,0,0,1,.194.012l5.6,3.816a.188.188,0,0,1,.082.176,4.033,4.033,0,0,0,.483,2.489.188.188,0,0,1-.01.2l-2.072,3.04h-1.8A4.378,4.378,0,0,0,28.176,10.359Zm3.3,4.074h-6.6a3.312,3.312,0,0,1,6.6,0Zm-21.029-.251a.737.737,0,0,1,.737-.737h1.254l-.1.988H10.445ZM9.069,16.791a1.3,1.3,0,0,1,1.3-1.3h29.6a1.3,1.3,0,0,1,1.3,1.3v1.472H9.069Zm32.2,15.554H15.328a.531.531,0,1,0,0,1.061H41.268v1.472a1.3,1.3,0,0,1-1.3,1.3h-29.6a1.3,1.3,0,0,1-1.3-1.3V33.406H11.93a.531.531,0,0,0,0-1.061H9.069V19.325h32.2v2.486H36.223a4.029,4.029,0,0,0-3.62,2.268l-.007.013-.016.035a4,4,0,0,0-.2.513h0a4.011,4.011,0,0,0-.181,1.194h0a4.029,4.029,0,0,0,4.024,4.024h5.045v2.486h0Zm1.75-3.679a.132.132,0,0,1-.132.132H36.224a2.966,2.966,0,0,1-2.6-1.552q-.034-.063-.066-.128-.063-.129-.113-.266a2.966,2.966,0,0,1,0-2.035q.05-.136.113-.266.031-.065.066-.128a2.966,2.966,0,0,1,2.6-1.552h6.663a.132.132,0,0,1,.132.132Z" transform="translate(0 0)"/>
    <path id="Path_4258" data-name="Path 4258" d="M370.234,325.627a2.153,2.153,0,1,0,2.153,2.153A2.155,2.155,0,0,0,370.234,325.627Zm0,3.244a1.092,1.092,0,1,1,1.092-1.091A1.093,1.093,0,0,1,370.234,328.871Z" transform="translate(-333.886 -301.945)"/>
  </g>
</svg>
