<svg xmlns="http://www.w3.org/2000/svg" width="24" height="24.01" viewBox="0 0 24 24.01">
  <path id="icon_withdrawal" d="M16,12.01a4,4,0,1,0-4,4A4,4,0,0,0,16,12.01Zm-4,2a2,2,0,1,1,2-2A2.006,2.006,0,0,1,12,14.01ZM20,0H4A4.007,4.007,0,0,0,0,4.01v1a4.005,4.005,0,0,0,4,4v10a5,5,0,0,0,5,5h6a5,5,0,0,0,5-5v-10a4,4,0,0,0,4-4v-1A4.007,4.007,0,0,0,20,0Zm2,5a2.006,2.006,0,0,1-2,2V5a1,1,0,0,0-2,0V19a3.009,3.009,0,0,1-3,3H9a3.009,3.009,0,0,1-3-3V5.01a1,1,0,0,0-2,0v2a2.006,2.006,0,0,1-2-2v-1a2.006,2.006,0,0,1,2-2H20a2.006,2.006,0,0,1,2,2v1ZM17,19.5A1.5,1.5,0,1,1,15.5,18,1.5,1.5,0,0,1,17,19.5Zm-7,0A1.5,1.5,0,1,1,8.5,18,1.5,1.5,0,0,1,10,19.5Z" fill="#7b7b7b"/>
</svg>
